<svg width="1440" height="882" viewBox="0 0 1440 882" fill="none" xmlns="http://www.w3.org/2000/svg">
<g opacity="0.5">
<path d="M345.761 651.473H1094.24V231.224H345.761V651.473ZM1096 653.231H344.002V229.468H1096V653.231Z" fill="#C2DAF2"/>
<path d="M1095.12 592.942H344.88V591.184H1095.12V592.942Z" fill="#C2DAF2"/>
<path d="M1095.12 532.66H344.88V530.902H1095.12V532.66Z" fill="#C2DAF2"/>
<path d="M1095.12 472.372H344.88V470.613H1095.12V472.372Z" fill="#C2DAF2"/>
<path d="M1095.12 412.084H344.88V410.326H1095.12V412.084Z" fill="#C2DAF2"/>
<path d="M1095.12 351.797H344.88V350.039H1095.12V351.797Z" fill="#C2DAF2"/>
<path d="M1095.12 291.51H344.88V289.752H1095.12V291.51Z" fill="#C2DAF2"/>
<path d="M1038.29 652.351H1036.53V230.342H1038.29V652.351Z" fill="#C2DAF2"/>
<path d="M980.577 652.354H978.822V230.345H980.577V652.354Z" fill="#C2DAF2"/>
<path d="M922.861 652.353H921.102V230.342H922.861V652.353Z" fill="#C2DAF2"/>
<path d="M865.156 652.351H863.396V230.339H865.156V652.351Z" fill="#C2DAF2"/>
<path d="M807.441 652.353H805.68V230.342H807.441V652.353Z" fill="#C2DAF2"/>
<path d="M749.735 652.352H747.977V230.343H749.735V652.352Z" fill="#C2DAF2"/>
<path d="M692.025 652.352H690.267V230.343H692.025V652.352Z" fill="#C2DAF2"/>
<path d="M634.315 652.352H632.557V230.343H634.315V652.352Z" fill="#C2DAF2"/>
<path d="M576.605 652.352H574.847V230.343H576.605V652.352Z" fill="#C2DAF2"/>
<path d="M518.89 652.352H517.132V230.343H518.89V652.352Z" fill="#C2DAF2"/>
<path d="M461.181 652.352H459.422V230.343H461.181V652.352Z" fill="#C2DAF2"/>
<path d="M403.472 652.352H401.713V230.343H403.472V652.352Z" fill="#C2DAF2"/>
<path d="M345.148 229.464H1094.85L1434.19 3.21791H5.80709L345.148 229.464ZM1095.38 231.222H344.616L0 1.46181H1440L1095.38 231.222Z" fill="#C2DAF2"/>
<path d="M1122.55 212.935H317.458V211.181H1122.55V212.935Z" fill="#C2DAF2"/>
<path d="M1154.29 191.768H285.706V190.011H1154.29V191.768Z" fill="#C2DAF2"/>
<path d="M1191.49 166.977H248.52V165.212H1191.49V166.977Z" fill="#C2DAF2"/>
<path d="M1235.63 137.542H204.364V135.779H1235.63V137.542Z" fill="#C2DAF2"/>
<path d="M1288.91 102.017H151.089V100.258H1288.91V102.017Z" fill="#C2DAF2"/>
<path d="M1354.46 58.3081H85.5317V56.553H1354.46V58.3081Z" fill="#C2DAF2"/>
<path d="M1037.95 231.031L1036.87 229.649L1326.23 1.64389L1327.32 3.02092L1037.95 231.031Z" fill="#C2DAF2"/>
<path d="M980.306 230.976L979.09 229.71L1215.85 1.70302L1217.06 2.9695L980.306 230.976Z" fill="#C2DAF2"/>
<path d="M922.665 230.896L921.298 229.793L1105.44 1.78989L1106.81 2.89279L922.665 230.896Z" fill="#C2DAF2"/>
<path d="M865.04 230.78L863.516 229.901L995.044 1.89874L996.569 2.77798L865.04 230.78Z" fill="#C2DAF2"/>
<path d="M807.404 230.624L805.737 230.053L884.656 2.04407L886.317 2.62134L807.404 230.624Z" fill="#C2DAF2"/>
<path d="M749.73 230.438L747.987 230.237L774.291 2.23134L776.04 2.43262L749.73 230.438Z" fill="#C2DAF2"/>
<path d="M690.28 230.438L663.969 2.43311L665.718 2.23183L692.022 230.237L690.28 230.438Z" fill="#C2DAF2"/>
<path d="M632.605 230.631L553.691 2.62286L555.346 2.05042L634.265 230.058L632.605 230.631Z" fill="#C2DAF2"/>
<path d="M574.964 230.783L443.435 2.7785L444.959 1.89764L576.493 229.902L574.964 230.783Z" fill="#C2DAF2"/>
<path d="M517.329 230.895L333.188 2.89L334.555 1.78253L518.695 229.787L517.329 230.895Z" fill="#C2DAF2"/>
<path d="M459.689 230.98L222.937 2.97153L224.157 1.70665L460.908 229.709L459.689 230.98Z" fill="#C2DAF2"/>
<path d="M402.046 231.037L112.68 3.03383L113.769 1.64929L403.134 229.652L402.046 231.037Z" fill="#C2DAF2"/>
<path d="M5.80709 879.479H1434.19L1094.85 653.23H345.148L5.80709 879.479ZM1440 881.237H0L344.616 651.472H1095.38L1440 881.237Z" fill="#C2DAF2"/>
<path d="M1122.55 671.511H317.458V669.752H1122.55V671.511Z" fill="#C2DAF2"/>
<path d="M1154.29 692.683H285.706V690.924H1154.29V692.683Z" fill="#C2DAF2"/>
<path d="M1191.49 717.475H248.52V715.716H1191.49V717.475Z" fill="#C2DAF2"/>
<path d="M1235.63 746.916H204.364V745.158H1235.63V746.916Z" fill="#C2DAF2"/>
<path d="M1288.91 782.437H151.089V780.677H1288.91V782.437Z" fill="#C2DAF2"/>
<path d="M1354.46 826.143H85.5317V824.385H1354.46V826.143Z" fill="#C2DAF2"/>
<path d="M1326.23 881.044L1036.87 653.041L1037.95 651.658L1327.32 879.666L1326.23 881.044Z" fill="#C2DAF2"/>
<path d="M1215.85 880.991L979.09 652.984L980.306 651.718L1217.06 879.726L1215.85 880.991Z" fill="#C2DAF2"/>
<path d="M1105.44 880.909L921.298 652.902L922.665 651.801L1106.81 879.802L1105.44 880.909Z" fill="#C2DAF2"/>
<path d="M995.044 880.799L863.516 652.791L865.04 651.912L996.569 879.92L995.044 880.799Z" fill="#C2DAF2"/>
<path d="M884.656 880.646L805.737 652.636L807.404 652.062L886.317 880.071L884.656 880.646Z" fill="#C2DAF2"/>
<path d="M774.287 880.458L747.982 652.45L749.729 652.251L776.034 880.253L774.287 880.458Z" fill="#C2DAF2"/>
<path d="M665.714 880.458L663.967 880.253L690.272 652.251L692.019 652.45L665.714 880.458Z" fill="#C2DAF2"/>
<path d="M555.347 880.646L553.688 880.071L632.604 652.063L634.263 652.638L555.347 880.646Z" fill="#C2DAF2"/>
<path d="M444.958 880.798L443.434 879.919L574.965 651.911L576.489 652.79L444.958 880.798Z" fill="#C2DAF2"/>
<path d="M334.555 880.91L333.187 879.802L517.331 651.801L518.696 652.902L334.555 880.91Z" fill="#C2DAF2"/>
<path d="M224.16 880.991L222.939 879.725L459.693 651.718L460.912 652.984L224.16 880.991Z" fill="#C2DAF2"/>
<path d="M113.77 881.044L112.681 879.667L402.048 651.659L403.136 653.042L113.77 881.044Z" fill="#C2DAF2"/>
<path d="M3.78317 3.98181L3.78254 878.711L344.003 651.882V230.811L3.78317 3.98181ZM2.02441 882L2.02504 0.693604L345.761 229.873V652.819L2.02441 882Z" fill="#C2DAF2"/>
<path d="M91.8346 821.646H90.0767V61.0447H91.8346V821.646Z" fill="#C2DAF2"/>
<path d="M159.116 776.791H157.358V105.903H159.116V776.791Z" fill="#C2DAF2"/>
<path d="M212.198 741.4H210.439V141.293H212.198V741.4Z" fill="#C2DAF2"/>
<path d="M255.149 712.763H253.391V169.931H255.149V712.763Z" fill="#C2DAF2"/>
<path d="M290.616 689.119H288.857V193.576H290.616V689.119Z" fill="#C2DAF2"/>
<path d="M320.397 669.261H318.639V213.433H320.397V669.261Z" fill="#C2DAF2"/>
<path d="M3.2815 755.72L2.52539 754.131L344.504 591.271L345.26 592.86L3.2815 755.72Z" fill="#C2DAF2"/>
<path d="M3.14459 630.336L2.66162 628.648L344.64 530.93L345.123 532.623L3.14459 630.336Z" fill="#C2DAF2"/>
<path d="M2.98629 504.936L2.81982 503.189L344.799 470.618L344.965 472.365L2.98629 504.936Z" fill="#C2DAF2"/>
<path d="M344.799 412.076L2.81982 379.505L2.98629 377.758L344.965 410.329L344.799 412.076Z" fill="#C2DAF2"/>
<path d="M344.64 351.764L2.66162 254.045L3.14459 252.357L345.123 350.07L344.64 351.764Z" fill="#C2DAF2"/>
<path d="M344.504 291.423L2.52539 128.563L3.2815 126.974L345.26 289.834L344.504 291.423Z" fill="#C2DAF2"/>
<path d="M1096 651.883L1436.22 878.712V3.9859L1096 230.815V651.883ZM1437.97 882L1094.23 652.821V229.874L1437.97 0.693542V882Z" fill="#C2DAF2"/>
<path d="M1349.93 821.646H1348.17V61.0471H1349.93V821.646Z" fill="#C2DAF2"/>
<path d="M1282.65 776.79H1280.89V105.901H1282.65V776.79Z" fill="#C2DAF2"/>
<path d="M1229.57 741.4H1227.81V141.294H1229.57V741.4Z" fill="#C2DAF2"/>
<path d="M1186.6 712.764H1184.84V169.931H1186.6V712.764Z" fill="#C2DAF2"/>
<path d="M1151.14 689.119H1149.38V193.573H1151.14V689.119Z" fill="#C2DAF2"/>
<path d="M1121.36 669.261H1119.6V213.429H1121.36V669.261Z" fill="#C2DAF2"/>
<path d="M1436.72 755.719L1094.74 592.858L1095.5 591.27L1437.48 754.131L1436.72 755.719Z" fill="#C2DAF2"/>
<path d="M1436.86 630.335L1094.88 532.623L1095.36 530.928L1437.34 628.647L1436.86 630.335Z" fill="#C2DAF2"/>
<path d="M1437.01 504.936L1095.04 472.365L1095.21 470.618L1437.18 503.188L1437.01 504.936Z" fill="#C2DAF2"/>
<path d="M1095.21 412.078L1095.04 410.328L1437.01 377.756L1437.18 379.506L1095.21 412.078Z" fill="#C2DAF2"/>
<path d="M1095.36 351.76L1094.88 350.069L1436.86 252.352L1437.34 254.044L1095.36 351.76Z" fill="#C2DAF2"/>
<path d="M1095.5 291.422L1094.74 289.835L1436.72 126.973L1437.48 128.561L1095.5 291.422Z" fill="#C2DAF2"/>
</g>
</svg>
