<svg width="362" height="160" viewBox="0 0 362 160" fill="none" xmlns="http://www.w3.org/2000/svg">
<g filter="url(#filter0_d_199_269)">
<path d="M70.6585 34.7363L42.4161 67.5142C40.8418 69.3413 40.7961 72.0319 42.3076 73.9113L70.6328 109.133C71.5818 110.314 73.0147 111 74.5291 111H288.014C289.544 111 290.989 110.3 291.937 109.099L319.758 73.876C321.232 72.0095 321.187 69.3627 319.651 67.5471L291.913 34.7701C290.963 33.6475 289.567 33 288.097 33H74.4464C72.9913 33 71.6083 33.6339 70.6585 34.7363Z" stroke="#D71F27" stroke-width="2"/>
<path d="M52.8525 67.4611L78.4811 42.0131C79.2304 41.2691 80.2436 40.8516 81.2995 40.8516H281.207C282.275 40.8516 283.3 41.279 284.051 42.0387L309.221 67.4857C310.725 69.0061 310.767 71.4405 309.316 73.0119L284.065 100.365C283.307 101.185 282.242 101.652 281.126 101.652H81.3808C80.2769 101.652 79.2222 101.195 78.4662 100.391L52.7563 73.0391C51.2725 71.4605 51.3152 68.9876 52.8525 67.4611Z" fill="#F6F6F6" stroke="#0044C9" stroke-width="2"/>
<path d="M122.712 76.536C122.52 76.696 122.16 76.912 121.632 77.184C121.12 77.456 120.488 77.696 119.736 77.904C118.984 78.112 118.152 78.208 117.24 78.192C115.848 78.16 114.6 77.912 113.496 77.448C112.408 76.968 111.48 76.32 110.712 75.504C109.96 74.688 109.384 73.752 108.984 72.696C108.584 71.64 108.384 70.512 108.384 69.312C108.384 67.968 108.584 66.736 108.984 65.616C109.4 64.496 109.984 63.528 110.736 62.712C111.504 61.896 112.416 61.264 113.472 60.816C114.528 60.368 115.696 60.144 116.976 60.144C118.16 60.144 119.208 60.304 120.12 60.624C121.032 60.944 121.776 61.288 122.352 61.656L120.984 64.944C120.584 64.64 120.048 64.328 119.376 64.008C118.72 63.672 117.96 63.504 117.096 63.504C116.424 63.504 115.776 63.648 115.152 63.936C114.544 64.208 114 64.6 113.52 65.112C113.056 65.624 112.688 66.224 112.416 66.912C112.144 67.584 112.008 68.32 112.008 69.12C112.008 69.968 112.128 70.744 112.368 71.448C112.624 72.152 112.984 72.76 113.448 73.272C113.912 73.768 114.464 74.152 115.104 74.424C115.76 74.696 116.496 74.832 117.312 74.832C118.256 74.832 119.064 74.68 119.736 74.376C120.408 74.072 120.92 73.752 121.272 73.416L122.712 76.536ZM124.83 72.624C124.83 71.552 125.078 70.592 125.574 69.744C126.086 68.896 126.798 68.232 127.71 67.752C128.622 67.256 129.67 67.008 130.854 67.008C132.054 67.008 133.094 67.256 133.974 67.752C134.854 68.232 135.526 68.896 135.99 69.744C136.47 70.592 136.71 71.552 136.71 72.624C136.71 73.696 136.47 74.664 135.99 75.528C135.526 76.376 134.854 77.048 133.974 77.544C133.094 78.04 132.038 78.288 130.806 78.288C129.654 78.288 128.622 78.064 127.71 77.616C126.814 77.168 126.11 76.52 125.598 75.672C125.086 74.824 124.83 73.808 124.83 72.624ZM128.214 72.648C128.214 73.192 128.326 73.688 128.55 74.136C128.774 74.568 129.078 74.912 129.462 75.168C129.846 75.424 130.278 75.552 130.758 75.552C131.286 75.552 131.742 75.424 132.126 75.168C132.51 74.912 132.806 74.568 133.014 74.136C133.222 73.688 133.326 73.192 133.326 72.648C133.326 72.088 133.222 71.592 133.014 71.16C132.806 70.728 132.51 70.384 132.126 70.128C131.742 69.872 131.286 69.744 130.758 69.744C130.278 69.744 129.846 69.872 129.462 70.128C129.078 70.384 128.774 70.728 128.55 71.16C128.326 71.592 128.214 72.088 128.214 72.648ZM142.405 67.512L142.669 69.36L142.621 69.216C143.037 68.512 143.557 67.968 144.181 67.584C144.805 67.184 145.557 66.984 146.437 66.984C147.013 66.984 147.517 67.064 147.949 67.224C148.397 67.384 148.773 67.624 149.077 67.944C149.381 68.248 149.589 68.648 149.701 69.144L149.581 69.168C150.029 68.512 150.565 67.984 151.189 67.584C151.829 67.184 152.493 66.984 153.181 66.984C154.221 66.984 155.045 67.28 155.653 67.872C156.277 68.448 156.597 69.2 156.613 70.128V78H153.277V71.52C153.261 71.056 153.189 70.68 153.061 70.392C152.933 70.088 152.637 69.92 152.173 69.888C151.629 69.888 151.165 70.08 150.781 70.464C150.413 70.832 150.133 71.312 149.941 71.904C149.765 72.48 149.677 73.08 149.677 73.704V78H146.317V71.52C146.301 71.056 146.213 70.68 146.053 70.392C145.909 70.088 145.605 69.92 145.141 69.888C144.613 69.888 144.165 70.08 143.797 70.464C143.445 70.832 143.173 71.304 142.981 71.88C142.805 72.456 142.717 73.048 142.717 73.656V78H139.357V67.512H142.405ZM160.076 67.512H163.436V78H160.076V67.512ZM160.004 63.792C160.004 63.296 160.196 62.888 160.58 62.568C160.98 62.248 161.404 62.088 161.852 62.088C162.3 62.088 162.708 62.248 163.076 62.568C163.46 62.888 163.652 63.296 163.652 63.792C163.652 64.288 163.46 64.696 163.076 65.016C162.708 65.32 162.3 65.472 161.852 65.472C161.404 65.472 160.98 65.32 160.58 65.016C160.196 64.696 160.004 64.288 160.004 63.792ZM169.944 67.512L170.208 69.384L170.16 69.216C170.528 68.56 171.048 68.032 171.72 67.632C172.392 67.216 173.216 67.008 174.192 67.008C175.184 67.008 176.008 67.304 176.664 67.896C177.336 68.472 177.68 69.224 177.696 70.152V78H174.336V71.4C174.32 70.936 174.192 70.568 173.952 70.296C173.728 70.008 173.344 69.864 172.8 69.864C172.288 69.864 171.84 70.032 171.456 70.368C171.072 70.704 170.776 71.16 170.568 71.736C170.36 72.312 170.256 72.976 170.256 73.728V78H166.896V67.512H169.944ZM186.57 83.28C185.626 83.28 184.826 83.168 184.17 82.944C183.53 82.72 182.986 82.448 182.538 82.128C182.09 81.808 181.69 81.504 181.338 81.216L183.306 78.912C183.674 79.248 184.098 79.568 184.578 79.872C185.074 80.192 185.722 80.352 186.522 80.352C187.05 80.352 187.538 80.256 187.986 80.064C188.45 79.888 188.818 79.624 189.09 79.272C189.378 78.92 189.522 78.48 189.522 77.952V75.648L189.642 76.248C189.386 76.792 188.922 77.272 188.25 77.688C187.578 78.088 186.698 78.288 185.61 78.288C184.666 78.288 183.786 78.048 182.97 77.568C182.17 77.072 181.53 76.408 181.05 75.576C180.57 74.728 180.33 73.768 180.33 72.696C180.33 71.592 180.586 70.616 181.098 69.768C181.61 68.904 182.274 68.224 183.09 67.728C183.906 67.232 184.77 66.984 185.682 66.984C186.594 66.984 187.378 67.12 188.034 67.392C188.706 67.648 189.21 67.968 189.546 68.352L189.426 68.664L189.786 67.512H192.882V78C192.882 79.024 192.594 79.928 192.018 80.712C191.442 81.512 190.674 82.136 189.714 82.584C188.77 83.048 187.722 83.28 186.57 83.28ZM183.714 72.6C183.714 73.16 183.842 73.664 184.098 74.112C184.354 74.56 184.698 74.912 185.13 75.168C185.578 75.424 186.074 75.552 186.618 75.552C187.082 75.552 187.49 75.496 187.842 75.384C188.21 75.256 188.53 75.08 188.802 74.856C189.09 74.616 189.33 74.32 189.522 73.968V71.4C189.378 71.048 189.162 70.752 188.874 70.512C188.586 70.256 188.25 70.064 187.866 69.936C187.498 69.792 187.082 69.72 186.618 69.72C186.074 69.72 185.578 69.848 185.13 70.104C184.698 70.344 184.354 70.68 184.098 71.112C183.842 71.544 183.714 72.04 183.714 72.6ZM207.546 78.216C206.682 78.216 205.874 78.064 205.122 77.76C204.386 77.456 203.762 77.032 203.25 76.488L204.642 74.64C205.154 75.104 205.626 75.44 206.058 75.648C206.506 75.84 206.906 75.936 207.258 75.936C207.53 75.936 207.77 75.912 207.978 75.864C208.202 75.8 208.378 75.712 208.506 75.6C208.634 75.472 208.698 75.312 208.698 75.12C208.698 74.848 208.586 74.632 208.362 74.472C208.154 74.312 207.882 74.184 207.546 74.088C207.21 73.976 206.85 73.864 206.466 73.752C205.506 73.448 204.81 73.008 204.378 72.432C203.962 71.84 203.754 71.2 203.754 70.512C203.754 69.984 203.89 69.456 204.162 68.928C204.45 68.384 204.898 67.936 205.506 67.584C206.13 67.216 206.93 67.032 207.906 67.032C208.786 67.032 209.53 67.12 210.138 67.296C210.746 67.472 211.322 67.76 211.866 68.16L210.594 70.128C210.29 69.888 209.946 69.688 209.562 69.528C209.194 69.352 208.85 69.256 208.53 69.24C208.242 69.224 207.994 69.256 207.786 69.336C207.594 69.416 207.442 69.52 207.33 69.648C207.218 69.776 207.162 69.912 207.162 70.056C207.146 70.36 207.258 70.6 207.498 70.776C207.754 70.952 208.074 71.088 208.458 71.184C208.842 71.28 209.218 71.392 209.586 71.52C210.098 71.68 210.538 71.896 210.906 72.168C211.274 72.44 211.554 72.768 211.746 73.152C211.954 73.52 212.058 73.968 212.058 74.496C212.058 75.136 211.89 75.744 211.554 76.32C211.234 76.88 210.738 77.336 210.066 77.688C209.41 78.04 208.57 78.216 207.546 78.216ZM214.057 72.624C214.057 71.552 214.305 70.592 214.801 69.744C215.313 68.896 216.025 68.232 216.937 67.752C217.849 67.256 218.897 67.008 220.081 67.008C221.281 67.008 222.321 67.256 223.201 67.752C224.081 68.232 224.753 68.896 225.217 69.744C225.697 70.592 225.937 71.552 225.937 72.624C225.937 73.696 225.697 74.664 225.217 75.528C224.753 76.376 224.081 77.048 223.201 77.544C222.321 78.04 221.265 78.288 220.033 78.288C218.881 78.288 217.849 78.064 216.937 77.616C216.041 77.168 215.337 76.52 214.825 75.672C214.313 74.824 214.057 73.808 214.057 72.624ZM217.441 72.648C217.441 73.192 217.553 73.688 217.777 74.136C218.001 74.568 218.305 74.912 218.689 75.168C219.073 75.424 219.505 75.552 219.985 75.552C220.513 75.552 220.969 75.424 221.353 75.168C221.737 74.912 222.033 74.568 222.241 74.136C222.449 73.688 222.553 73.192 222.553 72.648C222.553 72.088 222.449 71.592 222.241 71.16C222.033 70.728 221.737 70.384 221.353 70.128C220.969 69.872 220.513 69.744 219.985 69.744C219.505 69.744 219.073 69.872 218.689 70.128C218.305 70.384 218.001 70.728 217.777 71.16C217.553 71.592 217.441 72.088 217.441 72.648ZM227.767 72.624C227.767 71.552 228.015 70.592 228.511 69.744C229.023 68.896 229.735 68.232 230.647 67.752C231.559 67.256 232.607 67.008 233.791 67.008C234.991 67.008 236.031 67.256 236.911 67.752C237.791 68.232 238.463 68.896 238.927 69.744C239.407 70.592 239.647 71.552 239.647 72.624C239.647 73.696 239.407 74.664 238.927 75.528C238.463 76.376 237.791 77.048 236.911 77.544C236.031 78.04 234.975 78.288 233.743 78.288C232.591 78.288 231.559 78.064 230.647 77.616C229.751 77.168 229.047 76.52 228.535 75.672C228.023 74.824 227.767 73.808 227.767 72.624ZM231.151 72.648C231.151 73.192 231.263 73.688 231.487 74.136C231.711 74.568 232.015 74.912 232.399 75.168C232.783 75.424 233.215 75.552 233.695 75.552C234.223 75.552 234.679 75.424 235.063 75.168C235.447 74.912 235.743 74.568 235.951 74.136C236.159 73.688 236.263 73.192 236.263 72.648C236.263 72.088 236.159 71.592 235.951 71.16C235.743 70.728 235.447 70.384 235.063 70.128C234.679 69.872 234.223 69.744 233.695 69.744C233.215 69.744 232.783 69.872 232.399 70.128C232.015 70.384 231.711 70.728 231.487 71.16C231.263 71.592 231.151 72.088 231.151 72.648ZM245.342 67.512L245.606 69.384L245.558 69.216C245.926 68.56 246.446 68.032 247.118 67.632C247.79 67.216 248.614 67.008 249.59 67.008C250.582 67.008 251.406 67.304 252.062 67.896C252.734 68.472 253.078 69.224 253.094 70.152V78H249.734V71.4C249.718 70.936 249.59 70.568 249.35 70.296C249.126 70.008 248.742 69.864 248.198 69.864C247.686 69.864 247.238 70.032 246.854 70.368C246.47 70.704 246.174 71.16 245.966 71.736C245.758 72.312 245.654 72.976 245.654 73.728V78H242.294V67.512H245.342Z" fill="#3F3F3F"/>
</g>
<defs>
<filter id="filter0_d_199_269" x="0.204102" y="0" width="361.63" height="160" filterUnits="userSpaceOnUse" color-interpolation-filters="sRGB">
<feFlood flood-opacity="0" result="BackgroundImageFix"/>
<feColorMatrix in="SourceAlpha" type="matrix" values="0 0 0 0 0 0 0 0 0 0 0 0 0 0 0 0 0 0 127 0" result="hardAlpha"/>
<feOffset dy="8"/>
<feGaussianBlur stdDeviation="20"/>
<feComposite in2="hardAlpha" operator="out"/>
<feColorMatrix type="matrix" values="0 0 0 0 0.843137 0 0 0 0 0.121569 0 0 0 0 0.152941 0 0 0 0.4 0"/>
<feBlend mode="normal" in2="BackgroundImageFix" result="effect1_dropShadow_199_269"/>
<feBlend mode="normal" in="SourceGraphic" in2="effect1_dropShadow_199_269" result="shape"/>
</filter>
</defs>
</svg>
