<svg width="56" height="56" viewBox="0 0 56 56" fill="none" xmlns="http://www.w3.org/2000/svg">
<path d="M5.25 12.25V29.75H50.75V26.25H29.75V22.75H50.75V19.25H29.75V15.75H50.75V12.25H5.25ZM8.75 14C9.21413 14 9.65925 14.1844 9.98744 14.5126C10.3156 14.8408 10.5 15.2859 10.5 15.75C10.5 16.2141 10.3156 16.6592 9.98744 16.9874C9.65925 17.3156 9.21413 17.5 8.75 17.5C8.28587 17.5 7.84075 17.3156 7.51256 16.9874C7.18437 16.6592 7 16.2141 7 15.75C7 15.2859 7.18437 14.8408 7.51256 14.5126C7.84075 14.1844 8.28587 14 8.75 14ZM15.75 14C16.2141 14 16.6592 14.1844 16.9874 14.5126C17.3156 14.8408 17.5 15.2859 17.5 15.75C17.5 16.2141 17.3156 16.6592 16.9874 16.9874C16.6592 17.3156 16.2141 17.5 15.75 17.5C15.2859 17.5 14.8408 17.3156 14.5126 16.9874C14.1844 16.6592 14 16.2141 14 15.75C14 15.2859 14.1844 14.8408 14.5126 14.5126C14.8408 14.1844 15.2859 14 15.75 14ZM22.75 14C23.2141 14 23.6592 14.1844 23.9874 14.5126C24.3156 14.8408 24.5 15.2859 24.5 15.75C24.5 16.2141 24.3156 16.6592 23.9874 16.9874C23.6592 17.3156 23.2141 17.5 22.75 17.5C22.2859 17.5 21.8408 17.3156 21.5126 16.9874C21.1844 16.6592 21 16.2141 21 15.75C21 15.2859 21.1844 14.8408 21.5126 14.5126C21.8408 14.1844 22.2859 14 22.75 14ZM12.25 19.25C12.7141 19.25 13.1592 19.4344 13.4874 19.7626C13.8156 20.0908 14 20.5359 14 21C14 21.4641 13.8156 21.9092 13.4874 22.2374C13.1592 22.5656 12.7141 22.75 12.25 22.75C11.7859 22.75 11.3408 22.5656 11.0126 22.2374C10.6844 21.9092 10.5 21.4641 10.5 21C10.5 20.5359 10.6844 20.0908 11.0126 19.7626C11.3408 19.4344 11.7859 19.25 12.25 19.25ZM19.25 19.25C19.7141 19.25 20.1592 19.4344 20.4874 19.7626C20.8156 20.0908 21 20.5359 21 21C21 21.4641 20.8156 21.9092 20.4874 22.2374C20.1592 22.5656 19.7141 22.75 19.25 22.75C18.7859 22.75 18.3408 22.5656 18.0126 22.2374C17.6844 21.9092 17.5 21.4641 17.5 21C17.5 20.5359 17.6844 20.0908 18.0126 19.7626C18.3408 19.4344 18.7859 19.25 19.25 19.25ZM26.25 19.25C26.7141 19.25 27.1592 19.4344 27.4874 19.7626C27.8156 20.0908 28 20.5359 28 21C28 21.4641 27.8156 21.9092 27.4874 22.2374C27.1592 22.5656 26.7141 22.75 26.25 22.75C25.7859 22.75 25.3408 22.5656 25.0126 22.2374C24.6844 21.9092 24.5 21.4641 24.5 21C24.5 20.5359 24.6844 20.0908 25.0126 19.7626C25.3408 19.4344 25.7859 19.25 26.25 19.25ZM8.75 24.5C9.21413 24.5 9.65925 24.6844 9.98744 25.0126C10.3156 25.3408 10.5 25.7859 10.5 26.25C10.5 26.7141 10.3156 27.1592 9.98744 27.4874C9.65925 27.8156 9.21413 28 8.75 28C8.28587 28 7.84075 27.8156 7.51256 27.4874C7.18437 27.1592 7 26.7141 7 26.25C7 25.7859 7.18437 25.3408 7.51256 25.0126C7.84075 24.6844 8.28587 24.5 8.75 24.5ZM15.75 24.5C16.2141 24.5 16.6592 24.6844 16.9874 25.0126C17.3156 25.3408 17.5 25.7859 17.5 26.25C17.5 26.7141 17.3156 27.1592 16.9874 27.4874C16.6592 27.8156 16.2141 28 15.75 28C15.2859 28 14.8408 27.8156 14.5126 27.4874C14.1844 27.1592 14 26.7141 14 26.25C14 25.7859 14.1844 25.3408 14.5126 25.0126C14.8408 24.6844 15.2859 24.5 15.75 24.5ZM22.75 24.5C23.2141 24.5 23.6592 24.6844 23.9874 25.0126C24.3156 25.3408 24.5 25.7859 24.5 26.25C24.5 26.7141 24.3156 27.1592 23.9874 27.4874C23.6592 27.8156 23.2141 28 22.75 28C22.2859 28 21.8408 27.8156 21.5126 27.4874C21.1844 27.1592 21 26.7141 21 26.25C21 25.7859 21.1844 25.3408 21.5126 25.0126C21.8408 24.6844 22.2859 24.5 22.75 24.5ZM5.25 33.25V36.75H50.75V33.25H5.25ZM5.25 40.25V43.75H50.75V40.25H5.25Z" fill="white"/>
</svg>
