<svg width="658" height="282" viewBox="0 0 658 282" fill="none" xmlns="http://www.w3.org/2000/svg">
<path d="M71.712 2.26802C73.0015 1.44012 74.5016 1 76.0341 1H649C653.418 1 657 4.58173 657 9.00001V237.523C657 240.306 655.554 242.889 653.182 244.343L595.323 279.82C594.065 280.592 592.618 281 591.142 281H9C4.58173 281 1 277.418 1 273V52.0373C1 49.3136 2.38586 46.7769 4.67792 45.3054L71.712 2.26802Z" fill="white"/>
<path d="M653.182 244.343L653.705 245.196L653.182 244.343ZM595.323 279.82L594.801 278.967L595.323 279.82ZM4.67792 45.3054L4.13763 44.4639L4.67792 45.3054ZM71.712 2.26802L71.1717 1.42652L71.712 2.26802ZM649 2H76.0341V0H649V2ZM72.2523 3.10951L5.2182 46.1469L4.13763 44.4639L71.1717 1.42652L72.2523 3.10951ZM2 52.0373V273H0V52.0373H2ZM9 280H591.142V282H9V280ZM594.801 278.967L652.659 243.491L653.705 245.196L595.846 280.673L594.801 278.967ZM656 237.523V9.00001H658V237.523H656ZM652.659 243.491C654.735 242.218 656 239.958 656 237.523H658C658 240.654 656.373 243.559 653.705 245.196L652.659 243.491ZM591.142 280C592.433 280 593.7 279.643 594.801 278.967L595.846 280.673C594.43 281.541 592.802 282 591.142 282V280ZM2 273C2 276.866 5.13403 280 9 280V282C4.02942 282 0 277.971 0 273H2ZM5.2182 46.1469C3.21265 47.4345 2 49.654 2 52.0373H0C0 48.9731 1.55908 46.1194 4.13763 44.4639L5.2182 46.1469ZM76.0341 2C74.6932 2 73.3806 2.38511 72.2523 3.10951L71.1717 1.42652C72.6224 0.495133 74.3101 0 76.0341 0V2ZM649 0C653.971 0 658 4.02945 658 9.00001H656C656 5.13402 652.866 2 649 2V0Z" fill="url(#paint0_linear_199_274)"/>
<path d="M74.136 39.336V57H70.656V49.824H62.76V57H59.28V39.336H62.76V46.464H70.656V39.336H74.136ZM77.6063 48.192C77.6063 46.976 77.8383 45.824 78.3023 44.736C78.7663 43.648 79.4063 42.688 80.2223 41.856C81.0543 41.008 82.0143 40.344 83.1023 39.864C84.1903 39.384 85.3583 39.144 86.6063 39.144C87.8383 39.144 88.9983 39.384 90.0863 39.864C91.1743 40.344 92.1343 41.008 92.9663 41.856C93.8143 42.688 94.4703 43.648 94.9343 44.736C95.4143 45.824 95.6543 46.976 95.6543 48.192C95.6543 49.44 95.4143 50.608 94.9343 51.696C94.4703 52.784 93.8143 53.744 92.9663 54.576C92.1343 55.392 91.1743 56.032 90.0863 56.496C88.9983 56.96 87.8383 57.192 86.6063 57.192C85.3583 57.192 84.1903 56.96 83.1023 56.496C82.0143 56.032 81.0543 55.392 80.2223 54.576C79.4063 53.744 78.7663 52.784 78.3023 51.696C77.8383 50.608 77.6063 49.44 77.6063 48.192ZM81.2063 48.192C81.2063 48.976 81.3423 49.712 81.6143 50.4C81.9023 51.072 82.2943 51.672 82.7903 52.2C83.3023 52.712 83.8863 53.112 84.5423 53.4C85.2143 53.688 85.9423 53.832 86.7263 53.832C87.4783 53.832 88.1743 53.688 88.8143 53.4C89.4703 53.112 90.0383 52.712 90.5182 52.2C90.9983 51.672 91.3743 51.072 91.6463 50.4C91.9183 49.712 92.0543 48.976 92.0543 48.192C92.0543 47.392 91.9103 46.648 91.6223 45.96C91.3503 45.272 90.9663 44.672 90.4703 44.16C89.9903 43.632 89.4223 43.224 88.7663 42.936C88.1103 42.648 87.3983 42.504 86.6303 42.504C85.8623 42.504 85.1503 42.648 84.4943 42.936C83.8383 43.224 83.2623 43.632 82.7663 44.16C82.2703 44.672 81.8863 45.272 81.6143 45.96C81.3423 46.648 81.2063 47.392 81.2063 48.192ZM96.1821 39.456H100.262L104.03 50.544L103.478 50.304L106.766 42.12L108.374 46.896L103.286 57.816L96.1821 39.456ZM105.038 39.456H108.494L112.838 50.184L112.214 50.088L115.454 39.456H119.198L112.382 57.768L105.038 39.456ZM130.061 39.336H133.541V57H130.061V39.336ZM136.9 39.336H148.804V42.696H144.508V57H141.028V42.696H136.9V39.336ZM158.456 39.456H162.536L166.304 50.544L165.752 50.304L169.04 42.12L170.648 46.896L165.56 57.816L158.456 39.456ZM167.312 39.456H170.768L175.112 50.184L174.488 50.088L177.728 39.456H181.472L174.656 57.768L167.312 39.456ZM182.02 48.192C182.02 46.976 182.252 45.824 182.716 44.736C183.18 43.648 183.82 42.688 184.636 41.856C185.468 41.008 186.428 40.344 187.516 39.864C188.604 39.384 189.772 39.144 191.02 39.144C192.252 39.144 193.412 39.384 194.5 39.864C195.588 40.344 196.548 41.008 197.38 41.856C198.228 42.688 198.884 43.648 199.348 44.736C199.828 45.824 200.068 46.976 200.068 48.192C200.068 49.44 199.828 50.608 199.348 51.696C198.884 52.784 198.228 53.744 197.38 54.576C196.548 55.392 195.588 56.032 194.5 56.496C193.412 56.96 192.252 57.192 191.02 57.192C189.772 57.192 188.604 56.96 187.516 56.496C186.428 56.032 185.468 55.392 184.636 54.576C183.82 53.744 183.18 52.784 182.716 51.696C182.252 50.608 182.02 49.44 182.02 48.192ZM185.62 48.192C185.62 48.976 185.756 49.712 186.028 50.4C186.316 51.072 186.708 51.672 187.204 52.2C187.716 52.712 188.3 53.112 188.956 53.4C189.628 53.688 190.356 53.832 191.14 53.832C191.892 53.832 192.588 53.688 193.228 53.4C193.884 53.112 194.452 52.712 194.932 52.2C195.412 51.672 195.788 51.072 196.06 50.4C196.332 49.712 196.468 48.976 196.468 48.192C196.468 47.392 196.324 46.648 196.036 45.96C195.764 45.272 195.38 44.672 194.884 44.16C194.404 43.632 193.836 43.224 193.18 42.936C192.524 42.648 191.812 42.504 191.044 42.504C190.276 42.504 189.564 42.648 188.908 42.936C188.252 43.224 187.676 43.632 187.18 44.16C186.684 44.672 186.3 45.272 186.028 45.96C185.756 46.648 185.62 47.392 185.62 48.192ZM208.89 39.336C209.994 39.336 210.978 39.48 211.842 39.768C212.706 40.04 213.426 40.44 214.002 40.968C214.594 41.48 215.042 42.104 215.346 42.84C215.65 43.56 215.802 44.376 215.802 45.288C215.802 46.008 215.69 46.728 215.466 47.448C215.258 48.168 214.906 48.824 214.41 49.416C213.93 50.008 213.29 50.488 212.49 50.856C211.69 51.208 210.698 51.384 209.514 51.384H207.018V57H203.538V39.336H208.89ZM209.49 48.024C210.018 48.024 210.458 47.936 210.81 47.76C211.162 47.584 211.434 47.36 211.626 47.088C211.834 46.816 211.978 46.536 212.058 46.248C212.154 45.944 212.202 45.664 212.202 45.408C212.202 45.216 212.17 44.976 212.106 44.688C212.058 44.384 211.946 44.08 211.77 43.776C211.594 43.472 211.322 43.216 210.954 43.008C210.602 42.8 210.122 42.696 209.514 42.696H207.018V48.024H209.49ZM212.754 50.184L217.122 57H213.066L208.602 50.28L212.754 50.184ZM223.519 45.624L223.423 46.512L223.951 45.84L229.711 39.336H234.223L226.927 47.256L234.247 57H229.831L224.383 49.464L223.519 50.328V57H219.991V39.336H223.519V45.624ZM246.321 43.608C245.649 43.24 244.961 42.936 244.257 42.696C243.569 42.456 242.921 42.336 242.313 42.336C241.561 42.336 240.969 42.488 240.537 42.792C240.105 43.096 239.889 43.552 239.889 44.16C239.889 44.576 240.049 44.952 240.369 45.288C240.705 45.608 241.129 45.896 241.641 46.152C242.169 46.408 242.713 46.64 243.273 46.848C243.785 47.04 244.289 47.272 244.785 47.544C245.297 47.8 245.753 48.128 246.153 48.528C246.553 48.912 246.873 49.4 247.113 49.992C247.353 50.568 247.473 51.28 247.473 52.128C247.473 53.024 247.241 53.856 246.777 54.624C246.313 55.392 245.633 56.016 244.737 56.496C243.841 56.96 242.737 57.192 241.425 57.192C240.753 57.192 240.065 57.128 239.361 57C238.673 56.856 237.993 56.648 237.321 56.376C236.649 56.088 236.001 55.728 235.377 55.296L236.913 52.584C237.329 52.888 237.777 53.16 238.257 53.4C238.753 53.624 239.249 53.8 239.745 53.928C240.241 54.056 240.697 54.12 241.113 54.12C241.529 54.12 241.945 54.064 242.361 53.952C242.793 53.824 243.145 53.616 243.417 53.328C243.705 53.04 243.849 52.64 243.849 52.128C243.849 51.776 243.729 51.456 243.489 51.168C243.265 50.88 242.953 50.616 242.553 50.376C242.169 50.136 241.745 49.928 241.281 49.752C240.737 49.544 240.177 49.304 239.601 49.032C239.025 48.76 238.481 48.432 237.969 48.048C237.473 47.648 237.065 47.16 236.745 46.584C236.441 45.992 236.289 45.272 236.289 44.424C236.289 43.4 236.513 42.512 236.961 41.76C237.425 41.008 238.073 40.416 238.905 39.984C239.737 39.536 240.697 39.288 241.785 39.24C243.209 39.24 244.361 39.408 245.241 39.744C246.137 40.08 246.937 40.48 247.641 40.944L246.321 43.608Z" fill="#0044C9"/>
<path d="M62.724 89.752C63.816 89.752 64.74 89.938 65.496 90.31C66.252 90.67 66.828 91.186 67.224 91.858C67.62 92.518 67.818 93.304 67.818 94.216C67.818 94.756 67.734 95.302 67.566 95.854C67.41 96.394 67.152 96.886 66.792 97.33C66.444 97.774 65.97 98.134 65.37 98.41C64.782 98.674 64.056 98.806 63.192 98.806H61.32V103H58.71V89.752H62.724ZM63.174 96.268C63.57 96.268 63.9 96.202 64.164 96.07C64.428 95.926 64.632 95.752 64.776 95.548C64.932 95.332 65.04 95.11 65.1 94.882C65.172 94.654 65.208 94.456 65.208 94.288C65.208 94.156 65.184 93.982 65.136 93.766C65.1 93.538 65.016 93.31 64.884 93.082C64.752 92.854 64.548 92.662 64.272 92.506C64.008 92.35 63.648 92.272 63.192 92.272H61.32V96.268H63.174ZM70.1534 89.752H72.7634V100.48H78.9914V103H70.1534V89.752ZM80.1906 103L86.1666 89.23H86.3106L92.2866 103H89.2626L85.4466 93.316L87.3366 92.02L82.7646 103H80.1906ZM84.2766 98.212H88.2546L89.1726 100.408H83.4666L84.2766 98.212ZM103.24 101.902C103.096 102.022 102.826 102.184 102.43 102.388C102.046 102.592 101.572 102.772 101.008 102.928C100.444 103.084 99.8198 103.156 99.1358 103.144C98.0918 103.12 97.1558 102.934 96.3278 102.586C95.5118 102.226 94.8158 101.74 94.2397 101.128C93.6758 100.516 93.2438 99.814 92.9438 99.022C92.6438 98.23 92.4938 97.384 92.4938 96.484C92.4938 95.476 92.6438 94.552 92.9438 93.712C93.2558 92.872 93.6938 92.146 94.2578 91.534C94.8338 90.922 95.5178 90.448 96.3098 90.112C97.1018 89.776 97.9778 89.608 98.9378 89.608C99.8258 89.608 100.612 89.728 101.296 89.968C101.98 90.208 102.538 90.466 102.97 90.742L101.944 93.208C101.644 92.98 101.242 92.746 100.738 92.506C100.246 92.254 99.6758 92.128 99.0278 92.128C98.5238 92.128 98.0378 92.236 97.5698 92.452C97.1138 92.656 96.7057 92.95 96.3457 93.334C95.9978 93.718 95.7218 94.168 95.5178 94.684C95.3138 95.188 95.2118 95.74 95.2118 96.34C95.2118 96.976 95.3018 97.558 95.4818 98.086C95.6738 98.614 95.9438 99.07 96.2918 99.454C96.6398 99.826 97.0538 100.114 97.5338 100.318C98.0258 100.522 98.5778 100.624 99.1898 100.624C99.8978 100.624 100.504 100.51 101.008 100.282C101.512 100.054 101.896 99.814 102.16 99.562L103.24 101.902ZM105.855 89.752H114.891V92.272H108.465V95.098H114.153V97.618H108.465V100.48H115.143V103H105.855V89.752ZM122.202 103L128.178 89.23H128.322L134.298 103H131.274L127.458 93.316L129.348 92.02L124.776 103H122.202ZM126.288 98.212H130.266L131.184 100.408H125.478L126.288 98.212ZM145.971 89.752C147.351 89.752 148.449 90.034 149.265 90.598C150.081 91.15 150.489 91.978 150.489 93.082C150.489 93.898 150.285 94.582 149.877 95.134C149.481 95.674 148.935 96.082 148.239 96.358C147.555 96.622 146.769 96.754 145.881 96.754L145.467 95.35C146.559 95.35 147.525 95.5 148.365 95.8C149.217 96.1 149.889 96.532 150.381 97.096C150.873 97.648 151.119 98.314 151.119 99.094C151.119 99.814 150.987 100.426 150.723 100.93C150.471 101.422 150.123 101.824 149.679 102.136C149.247 102.436 148.755 102.658 148.203 102.802C147.651 102.934 147.081 103 146.493 103H142.083V89.752H145.971ZM146.277 95.17C146.793 95.17 147.171 95.014 147.411 94.702C147.663 94.39 147.789 94.036 147.789 93.64C147.789 93.184 147.633 92.842 147.321 92.614C147.021 92.386 146.613 92.272 146.097 92.272H144.693V95.17H146.277ZM146.367 100.57C146.751 100.57 147.099 100.522 147.411 100.426C147.723 100.318 147.969 100.156 148.149 99.94C148.329 99.712 148.419 99.43 148.419 99.094C148.419 98.71 148.311 98.422 148.095 98.23C147.879 98.026 147.597 97.888 147.249 97.816C146.913 97.732 146.559 97.69 146.187 97.69H144.693V100.57H146.367ZM153.737 89.752H162.773V92.272H156.347V95.098H162.035V97.618H156.347V100.48H163.025V103H153.737V89.752ZM164.826 89.752H173.754V92.272H170.532V103H167.922V92.272H164.826V89.752ZM181.316 96.394C181.316 95.482 181.49 94.618 181.838 93.802C182.186 92.986 182.666 92.266 183.278 91.642C183.902 91.006 184.622 90.508 185.438 90.148C186.254 89.788 187.13 89.608 188.066 89.608C188.99 89.608 189.86 89.788 190.676 90.148C191.492 90.508 192.212 91.006 192.836 91.642C193.472 92.266 193.964 92.986 194.312 93.802C194.672 94.618 194.852 95.482 194.852 96.394C194.852 97.33 194.672 98.206 194.312 99.022C193.964 99.838 193.472 100.558 192.836 101.182C192.212 101.794 191.492 102.274 190.676 102.622C189.86 102.97 188.99 103.144 188.066 103.144C187.13 103.144 186.254 102.97 185.438 102.622C184.622 102.274 183.902 101.794 183.278 101.182C182.666 100.558 182.186 99.838 181.838 99.022C181.49 98.206 181.316 97.33 181.316 96.394ZM184.016 96.394C184.016 96.982 184.118 97.534 184.322 98.05C184.538 98.554 184.832 99.004 185.204 99.4C185.588 99.784 186.026 100.084 186.518 100.3C187.022 100.516 187.568 100.624 188.156 100.624C188.72 100.624 189.242 100.516 189.722 100.3C190.214 100.084 190.64 99.784 191 99.4C191.36 99.004 191.642 98.554 191.846 98.05C192.05 97.534 192.152 96.982 192.152 96.394C192.152 95.794 192.044 95.236 191.828 94.72C191.624 94.204 191.336 93.754 190.964 93.37C190.604 92.974 190.178 92.668 189.686 92.452C189.194 92.236 188.66 92.128 188.084 92.128C187.508 92.128 186.974 92.236 186.482 92.452C185.99 92.668 185.558 92.974 185.186 93.37C184.814 93.754 184.526 94.204 184.322 94.72C184.118 95.236 184.016 95.794 184.016 96.394ZM209.316 103.54L199.272 94.468L200.046 94.9L200.1 103H197.454V89.23H197.562L207.39 98.266L206.814 98.014L206.76 89.752H209.388V103.54H209.316ZM222.091 98.878L217.213 89.752H220.435L223.855 96.628L223.081 96.682L226.447 89.752H229.669L224.701 98.878V103H222.091V98.878ZM229.48 96.394C229.48 95.482 229.654 94.618 230.002 93.802C230.35 92.986 230.83 92.266 231.442 91.642C232.066 91.006 232.786 90.508 233.602 90.148C234.418 89.788 235.294 89.608 236.23 89.608C237.154 89.608 238.024 89.788 238.84 90.148C239.656 90.508 240.376 91.006 241 91.642C241.636 92.266 242.128 92.986 242.476 93.802C242.836 94.618 243.016 95.482 243.016 96.394C243.016 97.33 242.836 98.206 242.476 99.022C242.128 99.838 241.636 100.558 241 101.182C240.376 101.794 239.656 102.274 238.84 102.622C238.024 102.97 237.154 103.144 236.23 103.144C235.294 103.144 234.418 102.97 233.602 102.622C232.786 102.274 232.066 101.794 231.442 101.182C230.83 100.558 230.35 99.838 230.002 99.022C229.654 98.206 229.48 97.33 229.48 96.394ZM232.18 96.394C232.18 96.982 232.282 97.534 232.486 98.05C232.702 98.554 232.996 99.004 233.368 99.4C233.752 99.784 234.19 100.084 234.682 100.3C235.186 100.516 235.732 100.624 236.32 100.624C236.884 100.624 237.406 100.516 237.886 100.3C238.378 100.084 238.804 99.784 239.164 99.4C239.524 99.004 239.806 98.554 240.01 98.05C240.214 97.534 240.316 96.982 240.316 96.394C240.316 95.794 240.208 95.236 239.992 94.72C239.788 94.204 239.5 93.754 239.128 93.37C238.768 92.974 238.342 92.668 237.85 92.452C237.358 92.236 236.824 92.128 236.248 92.128C235.672 92.128 235.138 92.236 234.646 92.452C234.154 92.668 233.722 92.974 233.35 93.37C232.978 93.754 232.69 94.204 232.486 94.72C232.282 95.236 232.18 95.794 232.18 96.394ZM247.958 98.104C247.958 98.524 248.084 98.926 248.336 99.31C248.588 99.694 248.918 100.006 249.326 100.246C249.746 100.486 250.202 100.606 250.694 100.606C251.234 100.606 251.714 100.486 252.134 100.246C252.554 100.006 252.884 99.694 253.124 99.31C253.376 98.926 253.502 98.524 253.502 98.104V89.752H256.076V98.158C256.076 99.13 255.836 99.994 255.356 100.75C254.876 101.494 254.228 102.082 253.412 102.514C252.596 102.934 251.69 103.144 250.694 103.144C249.71 103.144 248.81 102.934 247.994 102.514C247.19 102.082 246.548 101.494 246.068 100.75C245.588 99.994 245.348 99.13 245.348 98.158V89.752H247.958V98.104ZM263.238 89.752C264.066 89.752 264.804 89.86 265.452 90.076C266.1 90.28 266.64 90.58 267.072 90.976C267.516 91.36 267.852 91.828 268.08 92.38C268.308 92.92 268.422 93.532 268.422 94.216C268.422 94.756 268.338 95.296 268.17 95.836C268.014 96.376 267.75 96.868 267.378 97.312C267.018 97.756 266.538 98.116 265.938 98.392C265.338 98.656 264.594 98.788 263.706 98.788H261.834V103H259.224V89.752H263.238ZM263.688 96.268C264.084 96.268 264.414 96.202 264.678 96.07C264.942 95.938 265.146 95.77 265.29 95.566C265.446 95.362 265.554 95.152 265.614 94.936C265.686 94.708 265.722 94.498 265.722 94.306C265.722 94.162 265.698 93.982 265.65 93.766C265.614 93.538 265.53 93.31 265.398 93.082C265.266 92.854 265.062 92.662 264.786 92.506C264.522 92.35 264.162 92.272 263.706 92.272H261.834V96.268H263.688ZM266.136 97.888L269.412 103H266.37L263.022 97.96L266.136 97.888ZM281.431 89.752C282.523 89.752 283.447 89.938 284.203 90.31C284.959 90.67 285.535 91.186 285.931 91.858C286.327 92.518 286.525 93.304 286.525 94.216C286.525 94.756 286.441 95.302 286.273 95.854C286.117 96.394 285.859 96.886 285.499 97.33C285.151 97.774 284.677 98.134 284.077 98.41C283.489 98.674 282.763 98.806 281.899 98.806H280.027V103H277.417V89.752H281.431ZM281.881 96.268C282.277 96.268 282.607 96.202 282.871 96.07C283.135 95.926 283.339 95.752 283.483 95.548C283.639 95.332 283.747 95.11 283.807 94.882C283.879 94.654 283.915 94.456 283.915 94.288C283.915 94.156 283.891 93.982 283.843 93.766C283.807 93.538 283.723 93.31 283.591 93.082C283.459 92.854 283.255 92.662 282.979 92.506C282.715 92.35 282.355 92.272 281.899 92.272H280.027V96.268H281.881ZM292.874 89.752C293.702 89.752 294.44 89.86 295.088 90.076C295.736 90.28 296.276 90.58 296.708 90.976C297.152 91.36 297.488 91.828 297.716 92.38C297.944 92.92 298.058 93.532 298.058 94.216C298.058 94.756 297.974 95.296 297.806 95.836C297.65 96.376 297.386 96.868 297.014 97.312C296.654 97.756 296.174 98.116 295.574 98.392C294.974 98.656 294.23 98.788 293.342 98.788H291.47V103H288.86V89.752H292.874ZM293.324 96.268C293.72 96.268 294.05 96.202 294.314 96.07C294.578 95.938 294.782 95.77 294.926 95.566C295.082 95.362 295.19 95.152 295.25 94.936C295.322 94.708 295.358 94.498 295.358 94.306C295.358 94.162 295.334 93.982 295.286 93.766C295.25 93.538 295.166 93.31 295.034 93.082C294.902 92.854 294.698 92.662 294.422 92.506C294.158 92.35 293.798 92.272 293.342 92.272H291.47V96.268H293.324ZM295.772 97.888L299.048 103H296.006L292.658 97.96L295.772 97.888ZM301.2 89.752H310.236V92.272H303.81V95.098H309.498V97.618H303.81V100.48H310.488V103H301.2V89.752ZM320.263 92.956C319.759 92.68 319.243 92.452 318.715 92.272C318.199 92.092 317.713 92.002 317.257 92.002C316.693 92.002 316.249 92.116 315.925 92.344C315.601 92.572 315.439 92.914 315.439 93.37C315.439 93.682 315.559 93.964 315.799 94.216C316.051 94.456 316.369 94.672 316.753 94.864C317.149 95.056 317.557 95.23 317.977 95.386C318.361 95.53 318.739 95.704 319.111 95.908C319.495 96.1 319.837 96.346 320.137 96.646C320.437 96.934 320.677 97.3 320.857 97.744C321.037 98.176 321.127 98.71 321.127 99.346C321.127 100.018 320.953 100.642 320.605 101.218C320.257 101.794 319.747 102.262 319.075 102.622C318.403 102.97 317.575 103.144 316.591 103.144C316.087 103.144 315.571 103.096 315.043 103C314.527 102.892 314.017 102.736 313.513 102.532C313.009 102.316 312.523 102.046 312.055 101.722L313.207 99.688C313.519 99.916 313.855 100.12 314.215 100.3C314.587 100.468 314.959 100.6 315.331 100.696C315.703 100.792 316.045 100.84 316.357 100.84C316.669 100.84 316.981 100.798 317.293 100.714C317.617 100.618 317.881 100.462 318.085 100.246C318.301 100.03 318.409 99.73 318.409 99.346C318.409 99.082 318.319 98.842 318.139 98.626C317.971 98.41 317.737 98.212 317.437 98.032C317.149 97.852 316.831 97.696 316.483 97.564C316.075 97.408 315.655 97.228 315.223 97.024C314.791 96.82 314.383 96.574 313.999 96.286C313.627 95.986 313.321 95.62 313.081 95.188C312.853 94.744 312.739 94.204 312.739 93.568C312.739 92.8 312.907 92.134 313.243 91.57C313.591 91.006 314.077 90.562 314.701 90.238C315.325 89.902 316.045 89.716 316.861 89.68C317.929 89.68 318.793 89.806 319.453 90.058C320.125 90.31 320.725 90.61 321.253 90.958L320.263 92.956ZM323.683 89.752H326.293V103H323.683V89.752ZM329.712 103V89.752H333.672C335.004 89.752 336.138 89.95 337.074 90.346C338.01 90.742 338.76 91.27 339.324 91.93C339.9 92.59 340.32 93.328 340.584 94.144C340.848 94.96 340.98 95.782 340.98 96.61C340.98 97.594 340.8 98.482 340.44 99.274C340.092 100.054 339.612 100.726 339 101.29C338.388 101.842 337.68 102.268 336.876 102.568C336.072 102.856 335.22 103 334.32 103H329.712ZM332.322 100.48H333.87C334.53 100.48 335.13 100.396 335.67 100.228C336.21 100.048 336.672 99.79 337.056 99.454C337.452 99.118 337.752 98.698 337.956 98.194C338.172 97.678 338.28 97.09 338.28 96.43C338.28 95.566 338.136 94.864 337.848 94.324C337.572 93.772 337.224 93.346 336.804 93.046C336.396 92.746 335.976 92.542 335.544 92.434C335.112 92.314 334.746 92.254 334.446 92.254H332.322V100.48ZM343.599 89.752H352.635V92.272H346.209V95.098H351.897V97.618H346.209V100.48H352.887V103H343.599V89.752ZM367.449 103.54L357.405 94.468L358.179 94.9L358.233 103H355.587V89.23H355.695L365.523 98.266L364.947 98.014L364.893 89.752H367.521V103.54H367.449ZM370.033 89.752H378.961V92.272H375.739V103H373.129V92.272H370.033V89.752Z" fill="black"/>
<path d="M62.148 167.878L57.27 158.752H60.492L63.912 165.628L63.138 165.682L66.504 158.752H69.726L64.758 167.878V172H62.148V167.878ZM69.5367 165.394C69.5367 164.482 69.7107 163.618 70.0587 162.802C70.4067 161.986 70.8867 161.266 71.4987 160.642C72.1227 160.006 72.8427 159.508 73.6587 159.148C74.4747 158.788 75.3507 158.608 76.2867 158.608C77.2107 158.608 78.0807 158.788 78.8967 159.148C79.7127 159.508 80.4327 160.006 81.0567 160.642C81.6927 161.266 82.1847 161.986 82.5327 162.802C82.8927 163.618 83.0727 164.482 83.0727 165.394C83.0727 166.33 82.8927 167.206 82.5327 168.022C82.1847 168.838 81.6927 169.558 81.0567 170.182C80.4327 170.794 79.7127 171.274 78.8967 171.622C78.0807 171.97 77.2107 172.144 76.2867 172.144C75.3507 172.144 74.4747 171.97 73.6587 171.622C72.8427 171.274 72.1227 170.794 71.4987 170.182C70.8867 169.558 70.4067 168.838 70.0587 168.022C69.7107 167.206 69.5367 166.33 69.5367 165.394ZM72.2367 165.394C72.2367 165.982 72.3387 166.534 72.5427 167.05C72.7587 167.554 73.0527 168.004 73.4247 168.4C73.8087 168.784 74.2467 169.084 74.7387 169.3C75.2427 169.516 75.7887 169.624 76.3767 169.624C76.9407 169.624 77.4627 169.516 77.9427 169.3C78.4347 169.084 78.8607 168.784 79.2207 168.4C79.5807 168.004 79.8627 167.554 80.0667 167.05C80.2707 166.534 80.3727 165.982 80.3727 165.394C80.3727 164.794 80.2647 164.236 80.0487 163.72C79.8447 163.204 79.5567 162.754 79.1847 162.37C78.8247 161.974 78.3987 161.668 77.9067 161.452C77.4147 161.236 76.8807 161.128 76.3047 161.128C75.7287 161.128 75.1947 161.236 74.7027 161.452C74.2107 161.668 73.7787 161.974 73.4067 162.37C73.0347 162.754 72.7467 163.204 72.5427 163.72C72.3387 164.236 72.2367 164.794 72.2367 165.394ZM88.0148 167.104C88.0148 167.524 88.1408 167.926 88.3928 168.31C88.6448 168.694 88.9748 169.006 89.3828 169.246C89.8028 169.486 90.2588 169.606 90.7508 169.606C91.2908 169.606 91.7708 169.486 92.1908 169.246C92.6108 169.006 92.9408 168.694 93.1808 168.31C93.4328 167.926 93.5588 167.524 93.5588 167.104V158.752H96.1328V167.158C96.1328 168.13 95.8928 168.994 95.4128 169.75C94.9328 170.494 94.2848 171.082 93.4688 171.514C92.6528 171.934 91.7468 172.144 90.7508 172.144C89.7668 172.144 88.8668 171.934 88.0508 171.514C87.2468 171.082 86.6048 170.494 86.1248 169.75C85.6448 168.994 85.4048 168.13 85.4048 167.158V158.752H88.0148V167.104ZM103.294 158.752C104.122 158.752 104.86 158.86 105.508 159.076C106.156 159.28 106.696 159.58 107.128 159.976C107.572 160.36 107.908 160.828 108.136 161.38C108.364 161.92 108.478 162.532 108.478 163.216C108.478 163.756 108.394 164.296 108.226 164.836C108.07 165.376 107.806 165.868 107.434 166.312C107.074 166.756 106.594 167.116 105.994 167.392C105.394 167.656 104.65 167.788 103.762 167.788H101.89V172H99.2803V158.752H103.294ZM103.744 165.268C104.14 165.268 104.47 165.202 104.734 165.07C104.998 164.938 105.202 164.77 105.346 164.566C105.502 164.362 105.61 164.152 105.67 163.936C105.742 163.708 105.778 163.498 105.778 163.306C105.778 163.162 105.754 162.982 105.706 162.766C105.67 162.538 105.586 162.31 105.454 162.082C105.322 161.854 105.118 161.662 104.842 161.506C104.578 161.35 104.218 161.272 103.762 161.272H101.89V165.268H103.744ZM106.192 166.888L109.468 172H106.426L103.078 166.96L106.192 166.888ZM116.34 158.842H119.4L122.226 167.158L121.812 166.978L124.278 160.84L125.484 164.422L121.668 172.612L116.34 158.842ZM122.982 158.842H125.574L128.832 166.888L128.364 166.816L130.794 158.842H133.602L128.49 172.576L122.982 158.842ZM135.896 158.752H138.506V172H135.896V158.752ZM153.787 172.54L143.743 163.468L144.517 163.9L144.571 172H141.925V158.23H142.033L151.861 167.266L151.285 167.014L151.231 158.752H153.859V172.54H153.787ZM169.133 172.54L159.089 163.468L159.863 163.9L159.917 172H157.271V158.23H157.379L167.207 167.266L166.631 167.014L166.577 158.752H169.205V172.54H169.133ZM172.616 158.752H175.226V172H172.616V158.752ZM190.508 172.54L180.464 163.468L181.238 163.9L181.292 172H178.646V158.23H178.754L188.582 167.266L188.006 167.014L187.952 158.752H190.58V172.54H190.508ZM204.737 170.668C204.581 170.836 204.335 171.01 203.999 171.19C203.663 171.358 203.273 171.514 202.829 171.658C202.397 171.802 201.953 171.916 201.497 172C201.041 172.096 200.609 172.144 200.201 172.144C199.121 172.144 198.149 171.988 197.285 171.676C196.421 171.352 195.683 170.908 195.071 170.344C194.459 169.768 193.991 169.09 193.667 168.31C193.343 167.53 193.181 166.678 193.181 165.754C193.181 164.542 193.361 163.492 193.721 162.604C194.093 161.704 194.591 160.96 195.215 160.372C195.851 159.772 196.577 159.328 197.393 159.04C198.221 158.752 199.085 158.608 199.985 158.608C200.837 158.608 201.617 158.704 202.325 158.896C203.033 159.076 203.633 159.304 204.125 159.58L203.279 162.01C203.063 161.89 202.775 161.77 202.415 161.65C202.055 161.53 201.689 161.434 201.317 161.362C200.945 161.278 200.615 161.236 200.327 161.236C199.607 161.236 198.971 161.326 198.419 161.506C197.867 161.686 197.399 161.956 197.015 162.316C196.643 162.676 196.361 163.126 196.169 163.666C195.977 164.194 195.881 164.812 195.881 165.52C195.881 166.144 195.989 166.708 196.205 167.212C196.421 167.704 196.721 168.124 197.105 168.472C197.501 168.82 197.963 169.084 198.491 169.264C199.031 169.444 199.625 169.534 200.273 169.534C200.645 169.534 200.987 169.51 201.299 169.462C201.611 169.402 201.875 169.312 202.091 169.192V167.59H199.805V165.07H204.737V170.668ZM214.776 161.956C214.272 161.68 213.756 161.452 213.228 161.272C212.712 161.092 212.226 161.002 211.77 161.002C211.206 161.002 210.762 161.116 210.438 161.344C210.114 161.572 209.952 161.914 209.952 162.37C209.952 162.682 210.072 162.964 210.312 163.216C210.564 163.456 210.882 163.672 211.266 163.864C211.662 164.056 212.07 164.23 212.49 164.386C212.874 164.53 213.252 164.704 213.624 164.908C214.008 165.1 214.35 165.346 214.65 165.646C214.95 165.934 215.19 166.3 215.37 166.744C215.55 167.176 215.64 167.71 215.64 168.346C215.64 169.018 215.466 169.642 215.118 170.218C214.77 170.794 214.26 171.262 213.588 171.622C212.916 171.97 212.088 172.144 211.104 172.144C210.6 172.144 210.084 172.096 209.556 172C209.04 171.892 208.53 171.736 208.026 171.532C207.522 171.316 207.036 171.046 206.568 170.722L207.72 168.688C208.032 168.916 208.368 169.12 208.728 169.3C209.1 169.468 209.472 169.6 209.844 169.696C210.216 169.792 210.558 169.84 210.87 169.84C211.182 169.84 211.494 169.798 211.806 169.714C212.13 169.618 212.394 169.462 212.598 169.246C212.814 169.03 212.922 168.73 212.922 168.346C212.922 168.082 212.832 167.842 212.652 167.626C212.484 167.41 212.25 167.212 211.95 167.032C211.662 166.852 211.344 166.696 210.996 166.564C210.588 166.408 210.168 166.228 209.736 166.024C209.304 165.82 208.896 165.574 208.512 165.286C208.14 164.986 207.834 164.62 207.594 164.188C207.366 163.744 207.252 163.204 207.252 162.568C207.252 161.8 207.42 161.134 207.756 160.57C208.104 160.006 208.59 159.562 209.214 159.238C209.838 158.902 210.558 158.716 211.374 158.68C212.442 158.68 213.306 158.806 213.966 159.058C214.638 159.31 215.238 159.61 215.766 159.958L214.776 161.956ZM222.556 172L228.532 158.23H228.676L234.652 172H231.628L227.812 162.316L229.702 161.02L225.13 172H222.556ZM226.642 167.212H230.62L231.538 169.408H225.832L226.642 167.212ZM240.597 158.752C241.425 158.752 242.163 158.86 242.811 159.076C243.459 159.28 243.999 159.58 244.431 159.976C244.875 160.36 245.211 160.828 245.439 161.38C245.667 161.92 245.781 162.532 245.781 163.216C245.781 163.756 245.697 164.296 245.529 164.836C245.373 165.376 245.109 165.868 244.737 166.312C244.377 166.756 243.897 167.116 243.297 167.392C242.697 167.656 241.953 167.788 241.065 167.788H239.193V172H236.583V158.752H240.597ZM241.047 165.268C241.443 165.268 241.773 165.202 242.037 165.07C242.301 164.938 242.505 164.77 242.649 164.566C242.805 164.362 242.913 164.152 242.973 163.936C243.045 163.708 243.081 163.498 243.081 163.306C243.081 163.162 243.057 162.982 243.009 162.766C242.973 162.538 242.889 162.31 242.757 162.082C242.625 161.854 242.421 161.662 242.145 161.506C241.881 161.35 241.521 161.272 241.065 161.272H239.193V165.268H241.047ZM243.495 166.888L246.771 172H243.729L240.381 166.96L243.495 166.888ZM248.923 158.752H257.959V161.272H251.533V164.098H257.221V166.618H251.533V169.48H258.211V172H248.923V158.752ZM266.765 158.752H269.375V172H266.765V158.752ZM272.794 172V158.212H272.812L280.174 168.652L279.058 168.4L286.402 158.212H286.438V172H283.828V164.098L283.99 165.448L279.508 171.82H279.472L274.864 165.448L275.314 164.206V172H272.794ZM289.862 172V158.212H289.88L297.242 168.652L296.126 168.4L303.47 158.212H303.506V172H300.896V164.098L301.058 165.448L296.576 171.82H296.54L291.932 165.448L292.382 164.206V172H289.862ZM306.931 158.752H315.967V161.272H309.541V164.098H315.229V166.618H309.541V169.48H316.219V172H306.931V158.752ZM318.919 172V158.752H322.879C324.211 158.752 325.345 158.95 326.281 159.346C327.217 159.742 327.967 160.27 328.531 160.93C329.107 161.59 329.527 162.328 329.791 163.144C330.055 163.96 330.187 164.782 330.187 165.61C330.187 166.594 330.007 167.482 329.647 168.274C329.299 169.054 328.819 169.726 328.207 170.29C327.595 170.842 326.887 171.268 326.083 171.568C325.279 171.856 324.427 172 323.527 172H318.919ZM321.529 169.48H323.077C323.737 169.48 324.337 169.396 324.877 169.228C325.417 169.048 325.879 168.79 326.263 168.454C326.659 168.118 326.959 167.698 327.163 167.194C327.379 166.678 327.487 166.09 327.487 165.43C327.487 164.566 327.343 163.864 327.055 163.324C326.779 162.772 326.431 162.346 326.011 162.046C325.603 161.746 325.183 161.542 324.751 161.434C324.319 161.314 323.953 161.254 323.653 161.254H321.529V169.48ZM332.806 158.752H335.416V172H332.806V158.752ZM337.341 172L343.317 158.23H343.461L349.437 172H346.413L342.597 162.316L344.487 161.02L339.915 172H337.341ZM341.427 167.212H345.405L346.323 169.408H340.617L341.427 167.212ZM349.396 158.752H358.324V161.272H355.102V172H352.492V161.272H349.396V158.752ZM360.843 158.752H369.879V161.272H363.453V164.098H369.141V166.618H363.453V169.48H370.131V172H360.843V158.752ZM372.831 158.752H375.441V169.48H381.669V172H372.831V158.752ZM385.638 167.878L380.76 158.752H383.982L387.402 165.628L386.628 165.682L389.994 158.752H393.216L388.248 167.878V172H385.638V167.878ZM408.118 161.956C407.614 161.68 407.098 161.452 406.57 161.272C406.054 161.092 405.568 161.002 405.112 161.002C404.548 161.002 404.104 161.116 403.78 161.344C403.456 161.572 403.294 161.914 403.294 162.37C403.294 162.682 403.414 162.964 403.654 163.216C403.906 163.456 404.224 163.672 404.608 163.864C405.004 164.056 405.412 164.23 405.832 164.386C406.216 164.53 406.594 164.704 406.966 164.908C407.35 165.1 407.692 165.346 407.992 165.646C408.292 165.934 408.532 166.3 408.712 166.744C408.892 167.176 408.982 167.71 408.982 168.346C408.982 169.018 408.808 169.642 408.46 170.218C408.112 170.794 407.602 171.262 406.93 171.622C406.258 171.97 405.43 172.144 404.446 172.144C403.942 172.144 403.426 172.096 402.898 172C402.382 171.892 401.872 171.736 401.368 171.532C400.864 171.316 400.378 171.046 399.91 170.722L401.062 168.688C401.374 168.916 401.71 169.12 402.07 169.3C402.442 169.468 402.814 169.6 403.186 169.696C403.558 169.792 403.9 169.84 404.212 169.84C404.524 169.84 404.836 169.798 405.148 169.714C405.472 169.618 405.736 169.462 405.94 169.246C406.156 169.03 406.264 168.73 406.264 168.346C406.264 168.082 406.174 167.842 405.994 167.626C405.826 167.41 405.592 167.212 405.292 167.032C405.004 166.852 404.686 166.696 404.338 166.564C403.93 166.408 403.51 166.228 403.078 166.024C402.646 165.82 402.238 165.574 401.854 165.286C401.482 164.986 401.176 164.62 400.936 164.188C400.708 163.744 400.594 163.204 400.594 162.568C400.594 161.8 400.762 161.134 401.098 160.57C401.446 160.006 401.932 159.562 402.556 159.238C403.18 158.902 403.9 158.716 404.716 158.68C405.784 158.68 406.648 158.806 407.308 159.058C407.98 159.31 408.58 159.61 409.108 159.958L408.118 161.956ZM411.538 158.752H420.574V161.272H414.148V164.098H419.836V166.618H414.148V169.48H420.826V172H411.538V158.752ZM435.388 172.54L425.344 163.468L426.118 163.9L426.172 172H423.526V158.23H423.634L433.462 167.266L432.886 167.014L432.832 158.752H435.46V172.54H435.388ZM437.972 158.752H446.9V161.272H443.678V172H441.068V161.272H437.972V158.752ZM454.373 158.752H463.301V161.272H460.079V172H457.469V161.272H454.373V158.752ZM464.552 165.394C464.552 164.482 464.726 163.618 465.074 162.802C465.422 161.986 465.902 161.266 466.514 160.642C467.138 160.006 467.858 159.508 468.674 159.148C469.49 158.788 470.366 158.608 471.302 158.608C472.226 158.608 473.096 158.788 473.912 159.148C474.728 159.508 475.448 160.006 476.072 160.642C476.708 161.266 477.2 161.986 477.548 162.802C477.908 163.618 478.088 164.482 478.088 165.394C478.088 166.33 477.908 167.206 477.548 168.022C477.2 168.838 476.708 169.558 476.072 170.182C475.448 170.794 474.728 171.274 473.912 171.622C473.096 171.97 472.226 172.144 471.302 172.144C470.366 172.144 469.49 171.97 468.674 171.622C467.858 171.274 467.138 170.794 466.514 170.182C465.902 169.558 465.422 168.838 465.074 168.022C464.726 167.206 464.552 166.33 464.552 165.394ZM467.252 165.394C467.252 165.982 467.354 166.534 467.558 167.05C467.774 167.554 468.068 168.004 468.44 168.4C468.824 168.784 469.262 169.084 469.754 169.3C470.258 169.516 470.804 169.624 471.392 169.624C471.956 169.624 472.478 169.516 472.958 169.3C473.45 169.084 473.876 168.784 474.236 168.4C474.596 168.004 474.878 167.554 475.082 167.05C475.286 166.534 475.388 165.982 475.388 165.394C475.388 164.794 475.28 164.236 475.064 163.72C474.86 163.204 474.572 162.754 474.2 162.37C473.84 161.974 473.414 161.668 472.922 161.452C472.43 161.236 471.896 161.128 471.32 161.128C470.744 161.128 470.21 161.236 469.718 161.452C469.226 161.668 468.794 161.974 468.422 162.37C468.05 162.754 467.762 163.204 467.558 163.72C467.354 164.236 467.252 164.794 467.252 165.394ZM489.982 167.878L485.104 158.752H488.326L491.746 165.628L490.972 165.682L494.338 158.752H497.56L492.592 167.878V172H489.982V167.878ZM497.371 165.394C497.371 164.482 497.545 163.618 497.893 162.802C498.241 161.986 498.721 161.266 499.333 160.642C499.957 160.006 500.677 159.508 501.493 159.148C502.309 158.788 503.185 158.608 504.121 158.608C505.045 158.608 505.915 158.788 506.731 159.148C507.547 159.508 508.267 160.006 508.891 160.642C509.527 161.266 510.019 161.986 510.367 162.802C510.727 163.618 510.907 164.482 510.907 165.394C510.907 166.33 510.727 167.206 510.367 168.022C510.019 168.838 509.527 169.558 508.891 170.182C508.267 170.794 507.547 171.274 506.731 171.622C505.915 171.97 505.045 172.144 504.121 172.144C503.185 172.144 502.309 171.97 501.493 171.622C500.677 171.274 499.957 170.794 499.333 170.182C498.721 169.558 498.241 168.838 497.893 168.022C497.545 167.206 497.371 166.33 497.371 165.394ZM500.071 165.394C500.071 165.982 500.173 166.534 500.377 167.05C500.593 167.554 500.887 168.004 501.259 168.4C501.643 168.784 502.081 169.084 502.573 169.3C503.077 169.516 503.623 169.624 504.211 169.624C504.775 169.624 505.297 169.516 505.777 169.3C506.269 169.084 506.695 168.784 507.055 168.4C507.415 168.004 507.697 167.554 507.901 167.05C508.105 166.534 508.207 165.982 508.207 165.394C508.207 164.794 508.099 164.236 507.883 163.72C507.679 163.204 507.391 162.754 507.019 162.37C506.659 161.974 506.233 161.668 505.741 161.452C505.249 161.236 504.715 161.128 504.139 161.128C503.563 161.128 503.029 161.236 502.537 161.452C502.045 161.668 501.613 161.974 501.241 162.37C500.869 162.754 500.581 163.204 500.377 163.72C500.173 164.236 500.071 164.794 500.071 165.394ZM515.849 167.104C515.849 167.524 515.975 167.926 516.227 168.31C516.479 168.694 516.809 169.006 517.217 169.246C517.637 169.486 518.093 169.606 518.585 169.606C519.125 169.606 519.605 169.486 520.025 169.246C520.445 169.006 520.775 168.694 521.015 168.31C521.267 167.926 521.393 167.524 521.393 167.104V158.752H523.967V167.158C523.967 168.13 523.727 168.994 523.247 169.75C522.767 170.494 522.119 171.082 521.303 171.514C520.487 171.934 519.581 172.144 518.585 172.144C517.601 172.144 516.701 171.934 515.885 171.514C515.081 171.082 514.439 170.494 513.959 169.75C513.479 168.994 513.239 168.13 513.239 167.158V158.752H515.849V167.104ZM531.128 158.752C531.956 158.752 532.694 158.86 533.342 159.076C533.99 159.28 534.53 159.58 534.962 159.976C535.406 160.36 535.742 160.828 535.97 161.38C536.198 161.92 536.312 162.532 536.312 163.216C536.312 163.756 536.228 164.296 536.06 164.836C535.904 165.376 535.64 165.868 535.268 166.312C534.908 166.756 534.428 167.116 533.828 167.392C533.228 167.656 532.484 167.788 531.596 167.788H529.724V172H527.114V158.752H531.128ZM531.578 165.268C531.974 165.268 532.304 165.202 532.568 165.07C532.832 164.938 533.036 164.77 533.18 164.566C533.336 164.362 533.444 164.152 533.504 163.936C533.576 163.708 533.612 163.498 533.612 163.306C533.612 163.162 533.588 162.982 533.54 162.766C533.504 162.538 533.42 162.31 533.288 162.082C533.156 161.854 532.952 161.662 532.676 161.506C532.412 161.35 532.052 161.272 531.596 161.272H529.724V165.268H531.578ZM534.026 166.888L537.302 172H534.26L530.912 166.96L534.026 166.888ZM544.174 158.842H547.234L550.06 167.158L549.646 166.978L552.112 160.84L553.318 164.422L549.502 172.612L544.174 158.842ZM550.816 158.842H553.408L556.666 166.888L556.198 166.816L558.628 158.842H561.436L556.324 172.576L550.816 158.842ZM560.425 172L566.401 158.23H566.545L572.521 172H569.497L565.681 162.316L567.571 161.02L562.999 172H560.425ZM564.511 167.212H568.489L569.407 169.408H563.701L564.511 167.212ZM574.452 158.752H577.062V169.48H583.29V172H574.452V158.752ZM585.983 158.752H588.593V169.48H594.821V172H585.983V158.752ZM597.515 158.752H606.551V161.272H600.125V164.098H605.813V166.618H600.125V169.48H606.803V172H597.515V158.752ZM608.603 158.752H617.531V161.272H614.309V172H611.699V161.272H608.603V158.752Z" fill="black"/>
<path d="M70.572 241.54L60.528 232.468L61.302 232.9L61.356 241H58.71V227.23H58.818L68.646 236.266L68.07 236.014L68.016 227.752H70.644V241.54H70.572ZM73.2457 234.394C73.2457 233.482 73.4197 232.618 73.7677 231.802C74.1157 230.986 74.5957 230.266 75.2077 229.642C75.8317 229.006 76.5517 228.508 77.3677 228.148C78.1837 227.788 79.0597 227.608 79.9957 227.608C80.9197 227.608 81.7897 227.788 82.6057 228.148C83.4217 228.508 84.1417 229.006 84.7657 229.642C85.4017 230.266 85.8937 230.986 86.2417 231.802C86.6017 232.618 86.7817 233.482 86.7817 234.394C86.7817 235.33 86.6017 236.206 86.2417 237.022C85.8937 237.838 85.4017 238.558 84.7657 239.182C84.1417 239.794 83.4217 240.274 82.6057 240.622C81.7897 240.97 80.9197 241.144 79.9957 241.144C79.0597 241.144 78.1837 240.97 77.3677 240.622C76.5517 240.274 75.8317 239.794 75.2077 239.182C74.5957 238.558 74.1157 237.838 73.7677 237.022C73.4197 236.206 73.2457 235.33 73.2457 234.394ZM75.9457 234.394C75.9457 234.982 76.0477 235.534 76.2517 236.05C76.4677 236.554 76.7617 237.004 77.1337 237.4C77.5177 237.784 77.9557 238.084 78.4477 238.3C78.9517 238.516 79.4977 238.624 80.0857 238.624C80.6497 238.624 81.1717 238.516 81.6517 238.3C82.1437 238.084 82.5697 237.784 82.9297 237.4C83.2897 237.004 83.5717 236.554 83.7757 236.05C83.9797 235.534 84.0817 234.982 84.0817 234.394C84.0817 233.794 83.9737 233.236 83.7577 232.72C83.5537 232.204 83.2657 231.754 82.8937 231.37C82.5337 230.974 82.1077 230.668 81.6157 230.452C81.1237 230.236 80.5897 230.128 80.0137 230.128C79.4377 230.128 78.9037 230.236 78.4117 230.452C77.9197 230.668 77.4877 230.974 77.1157 231.37C76.7437 231.754 76.4557 232.204 76.2517 232.72C76.0477 233.236 75.9457 233.794 75.9457 234.394ZM95.2373 241V227.752H99.1973C100.529 227.752 101.663 227.95 102.599 228.346C103.535 228.742 104.285 229.27 104.849 229.93C105.425 230.59 105.845 231.328 106.109 232.144C106.373 232.96 106.505 233.782 106.505 234.61C106.505 235.594 106.325 236.482 105.965 237.274C105.617 238.054 105.137 238.726 104.525 239.29C103.913 239.842 103.205 240.268 102.401 240.568C101.597 240.856 100.745 241 99.8453 241H95.2373ZM97.8473 238.48H99.3953C100.055 238.48 100.655 238.396 101.195 238.228C101.735 238.048 102.197 237.79 102.581 237.454C102.977 237.118 103.277 236.698 103.481 236.194C103.697 235.678 103.805 235.09 103.805 234.43C103.805 233.566 103.661 232.864 103.373 232.324C103.097 231.772 102.749 231.346 102.329 231.046C101.921 230.746 101.501 230.542 101.069 230.434C100.637 230.314 100.271 230.254 99.9713 230.254H97.8473V238.48ZM109.124 227.752H118.16V230.272H111.734V233.098H117.422V235.618H111.734V238.48H118.412V241H109.124V227.752ZM125.126 227.752C126.218 227.752 127.142 227.938 127.898 228.31C128.654 228.67 129.23 229.186 129.626 229.858C130.022 230.518 130.22 231.304 130.22 232.216C130.22 232.756 130.136 233.302 129.968 233.854C129.812 234.394 129.554 234.886 129.194 235.33C128.846 235.774 128.372 236.134 127.772 236.41C127.184 236.674 126.458 236.806 125.594 236.806H123.722V241H121.112V227.752H125.126ZM125.576 234.268C125.972 234.268 126.302 234.202 126.566 234.07C126.83 233.926 127.034 233.752 127.178 233.548C127.334 233.332 127.442 233.11 127.502 232.882C127.574 232.654 127.61 232.456 127.61 232.288C127.61 232.156 127.586 231.982 127.538 231.766C127.502 231.538 127.418 231.31 127.286 231.082C127.154 230.854 126.95 230.662 126.674 230.506C126.41 230.35 126.05 230.272 125.594 230.272H123.722V234.268H125.576ZM131.746 234.394C131.746 233.482 131.92 232.618 132.268 231.802C132.616 230.986 133.096 230.266 133.708 229.642C134.332 229.006 135.052 228.508 135.868 228.148C136.684 227.788 137.56 227.608 138.496 227.608C139.42 227.608 140.29 227.788 141.106 228.148C141.922 228.508 142.642 229.006 143.266 229.642C143.902 230.266 144.394 230.986 144.742 231.802C145.102 232.618 145.282 233.482 145.282 234.394C145.282 235.33 145.102 236.206 144.742 237.022C144.394 237.838 143.902 238.558 143.266 239.182C142.642 239.794 141.922 240.274 141.106 240.622C140.29 240.97 139.42 241.144 138.496 241.144C137.56 241.144 136.684 240.97 135.868 240.622C135.052 240.274 134.332 239.794 133.708 239.182C133.096 238.558 132.616 237.838 132.268 237.022C131.92 236.206 131.746 235.33 131.746 234.394ZM134.446 234.394C134.446 234.982 134.548 235.534 134.752 236.05C134.968 236.554 135.262 237.004 135.634 237.4C136.018 237.784 136.456 238.084 136.948 238.3C137.452 238.516 137.998 238.624 138.586 238.624C139.15 238.624 139.672 238.516 140.152 238.3C140.644 238.084 141.07 237.784 141.43 237.4C141.79 237.004 142.072 236.554 142.276 236.05C142.48 235.534 142.582 234.982 142.582 234.394C142.582 233.794 142.474 233.236 142.258 232.72C142.054 232.204 141.766 231.754 141.394 231.37C141.034 230.974 140.608 230.668 140.116 230.452C139.624 230.236 139.09 230.128 138.514 230.128C137.938 230.128 137.404 230.236 136.912 230.452C136.42 230.668 135.988 230.974 135.616 231.37C135.244 231.754 134.956 232.204 134.752 232.72C134.548 233.236 134.446 233.794 134.446 234.394ZM154.958 230.956C154.454 230.68 153.938 230.452 153.41 230.272C152.894 230.092 152.408 230.002 151.952 230.002C151.388 230.002 150.944 230.116 150.62 230.344C150.296 230.572 150.134 230.914 150.134 231.37C150.134 231.682 150.254 231.964 150.494 232.216C150.746 232.456 151.064 232.672 151.448 232.864C151.844 233.056 152.252 233.23 152.672 233.386C153.056 233.53 153.434 233.704 153.806 233.908C154.19 234.1 154.532 234.346 154.832 234.646C155.132 234.934 155.372 235.3 155.552 235.744C155.732 236.176 155.822 236.71 155.822 237.346C155.822 238.018 155.648 238.642 155.3 239.218C154.952 239.794 154.442 240.262 153.77 240.622C153.098 240.97 152.27 241.144 151.286 241.144C150.782 241.144 150.266 241.096 149.738 241C149.222 240.892 148.712 240.736 148.208 240.532C147.704 240.316 147.218 240.046 146.75 239.722L147.902 237.688C148.214 237.916 148.55 238.12 148.91 238.3C149.282 238.468 149.654 238.6 150.026 238.696C150.398 238.792 150.74 238.84 151.052 238.84C151.364 238.84 151.676 238.798 151.988 238.714C152.312 238.618 152.576 238.462 152.78 238.246C152.996 238.03 153.104 237.73 153.104 237.346C153.104 237.082 153.014 236.842 152.834 236.626C152.666 236.41 152.432 236.212 152.132 236.032C151.844 235.852 151.526 235.696 151.178 235.564C150.77 235.408 150.35 235.228 149.918 235.024C149.486 234.82 149.078 234.574 148.694 234.286C148.322 233.986 148.016 233.62 147.776 233.188C147.548 232.744 147.434 232.204 147.434 231.568C147.434 230.8 147.602 230.134 147.938 229.57C148.286 229.006 148.772 228.562 149.396 228.238C150.02 227.902 150.74 227.716 151.556 227.68C152.624 227.68 153.488 227.806 154.148 228.058C154.82 228.31 155.42 228.61 155.948 228.958L154.958 230.956ZM158.378 227.752H160.988V241H158.378V227.752ZM163.507 227.752H172.435V230.272H169.213V241H166.603V230.272H163.507V227.752ZM182.028 230.956C181.524 230.68 181.008 230.452 180.48 230.272C179.964 230.092 179.478 230.002 179.022 230.002C178.458 230.002 178.014 230.116 177.69 230.344C177.366 230.572 177.204 230.914 177.204 231.37C177.204 231.682 177.324 231.964 177.564 232.216C177.816 232.456 178.134 232.672 178.518 232.864C178.914 233.056 179.322 233.23 179.742 233.386C180.126 233.53 180.504 233.704 180.876 233.908C181.26 234.1 181.602 234.346 181.902 234.646C182.202 234.934 182.442 235.3 182.622 235.744C182.802 236.176 182.892 236.71 182.892 237.346C182.892 238.018 182.718 238.642 182.37 239.218C182.022 239.794 181.512 240.262 180.84 240.622C180.168 240.97 179.34 241.144 178.356 241.144C177.852 241.144 177.336 241.096 176.808 241C176.292 240.892 175.782 240.736 175.278 240.532C174.774 240.316 174.288 240.046 173.82 239.722L174.972 237.688C175.284 237.916 175.62 238.12 175.98 238.3C176.352 238.468 176.724 238.6 177.096 238.696C177.468 238.792 177.81 238.84 178.122 238.84C178.434 238.84 178.746 238.798 179.058 238.714C179.382 238.618 179.646 238.462 179.85 238.246C180.066 238.03 180.174 237.73 180.174 237.346C180.174 237.082 180.084 236.842 179.904 236.626C179.736 236.41 179.502 236.212 179.202 236.032C178.914 235.852 178.596 235.696 178.248 235.564C177.84 235.408 177.42 235.228 176.988 235.024C176.556 234.82 176.148 234.574 175.764 234.286C175.392 233.986 175.086 233.62 174.846 233.188C174.618 232.744 174.504 232.204 174.504 231.568C174.504 230.8 174.672 230.134 175.008 229.57C175.356 229.006 175.842 228.562 176.466 228.238C177.09 227.902 177.81 227.716 178.626 227.68C179.694 227.68 180.558 227.806 181.218 228.058C181.89 228.31 182.49 228.61 183.018 228.958L182.028 230.956ZM187.122 239.416C186.858 240.052 186.594 240.682 186.33 241.306C186.066 241.93 185.802 242.56 185.538 243.196H183.522C183.762 242.56 183.996 241.93 184.224 241.306C184.464 240.682 184.704 240.052 184.944 239.416H187.122ZM206.855 241.54L196.811 232.468L197.585 232.9L197.639 241H194.993V227.23H195.101L204.929 236.266L204.353 236.014L204.299 227.752H206.927V241.54H206.855ZM209.529 234.394C209.529 233.482 209.703 232.618 210.051 231.802C210.399 230.986 210.879 230.266 211.491 229.642C212.115 229.006 212.835 228.508 213.651 228.148C214.467 227.788 215.343 227.608 216.279 227.608C217.203 227.608 218.073 227.788 218.889 228.148C219.705 228.508 220.425 229.006 221.049 229.642C221.685 230.266 222.177 230.986 222.525 231.802C222.885 232.618 223.065 233.482 223.065 234.394C223.065 235.33 222.885 236.206 222.525 237.022C222.177 237.838 221.685 238.558 221.049 239.182C220.425 239.794 219.705 240.274 218.889 240.622C218.073 240.97 217.203 241.144 216.279 241.144C215.343 241.144 214.467 240.97 213.651 240.622C212.835 240.274 212.115 239.794 211.491 239.182C210.879 238.558 210.399 237.838 210.051 237.022C209.703 236.206 209.529 235.33 209.529 234.394ZM212.229 234.394C212.229 234.982 212.331 235.534 212.535 236.05C212.751 236.554 213.045 237.004 213.417 237.4C213.801 237.784 214.239 238.084 214.731 238.3C215.235 238.516 215.781 238.624 216.369 238.624C216.933 238.624 217.455 238.516 217.935 238.3C218.427 238.084 218.853 237.784 219.213 237.4C219.573 237.004 219.855 236.554 220.059 236.05C220.263 235.534 220.365 234.982 220.365 234.394C220.365 233.794 220.257 233.236 220.041 232.72C219.837 232.204 219.549 231.754 219.177 231.37C218.817 230.974 218.391 230.668 217.899 230.452C217.407 230.236 216.873 230.128 216.297 230.128C215.721 230.128 215.187 230.236 214.695 230.452C214.203 230.668 213.771 230.974 213.399 231.37C213.027 231.754 212.739 232.204 212.535 232.72C212.331 233.236 212.229 233.794 212.229 234.394ZM234.167 232.468L234.095 233.134L234.491 232.63L238.811 227.752H242.195L236.723 233.692L242.213 241H238.901L234.815 235.348L234.167 235.996V241H231.521V227.752H234.167V232.468ZM247.632 236.878L242.754 227.752H245.976L249.396 234.628L248.622 234.682L251.988 227.752H255.21L250.242 236.878V241H247.632V236.878ZM265.767 239.902C265.623 240.022 265.353 240.184 264.957 240.388C264.573 240.592 264.099 240.772 263.535 240.928C262.971 241.084 262.347 241.156 261.663 241.144C260.619 241.12 259.683 240.934 258.855 240.586C258.039 240.226 257.343 239.74 256.767 239.128C256.203 238.516 255.771 237.814 255.471 237.022C255.171 236.23 255.021 235.384 255.021 234.484C255.021 233.476 255.171 232.552 255.471 231.712C255.783 230.872 256.221 230.146 256.785 229.534C257.361 228.922 258.045 228.448 258.837 228.112C259.629 227.776 260.505 227.608 261.465 227.608C262.353 227.608 263.139 227.728 263.823 227.968C264.507 228.208 265.065 228.466 265.497 228.742L264.471 231.208C264.171 230.98 263.769 230.746 263.265 230.506C262.773 230.254 262.203 230.128 261.555 230.128C261.051 230.128 260.565 230.236 260.097 230.452C259.641 230.656 259.233 230.95 258.873 231.334C258.525 231.718 258.249 232.168 258.045 232.684C257.841 233.188 257.739 233.74 257.739 234.34C257.739 234.976 257.829 235.558 258.009 236.086C258.201 236.614 258.471 237.07 258.819 237.454C259.167 237.826 259.581 238.114 260.061 238.318C260.553 238.522 261.105 238.624 261.717 238.624C262.425 238.624 263.031 238.51 263.535 238.282C264.039 238.054 264.423 237.814 264.687 237.562L265.767 239.902ZM270.056 239.416C269.792 240.052 269.528 240.682 269.264 241.306C269 241.93 268.736 242.56 268.472 243.196H266.456C266.696 242.56 266.93 241.93 267.158 241.306C267.398 240.682 267.638 240.052 267.878 239.416H270.056Z" fill="black"/>
<path d="M281.941 227.752C283.033 227.752 283.957 227.938 284.713 228.31C285.469 228.67 286.045 229.186 286.441 229.858C286.837 230.518 287.035 231.304 287.035 232.216C287.035 232.756 286.951 233.302 286.783 233.854C286.627 234.394 286.369 234.886 286.009 235.33C285.661 235.774 285.187 236.134 284.587 236.41C283.999 236.674 283.273 236.806 282.409 236.806H280.537V241H277.927V227.752H281.941ZM282.391 234.268C282.787 234.268 283.117 234.202 283.381 234.07C283.645 233.926 283.849 233.752 283.993 233.548C284.149 233.332 284.257 233.11 284.317 232.882C284.389 232.654 284.425 232.456 284.425 232.288C284.425 232.156 284.401 231.982 284.353 231.766C284.317 231.538 284.233 231.31 284.101 231.082C283.969 230.854 283.765 230.662 283.489 230.506C283.225 230.35 282.865 230.272 282.409 230.272H280.537V234.268H282.391ZM291.71 236.104C291.71 236.524 291.836 236.926 292.088 237.31C292.34 237.694 292.67 238.006 293.078 238.246C293.498 238.486 293.954 238.606 294.446 238.606C294.986 238.606 295.466 238.486 295.886 238.246C296.306 238.006 296.636 237.694 296.876 237.31C297.128 236.926 297.254 236.524 297.254 236.104V227.752H299.828V236.158C299.828 237.13 299.588 237.994 299.108 238.75C298.628 239.494 297.98 240.082 297.164 240.514C296.348 240.934 295.442 241.144 294.446 241.144C293.462 241.144 292.562 240.934 291.746 240.514C290.942 240.082 290.3 239.494 289.82 238.75C289.34 237.994 289.1 237.13 289.1 236.158V227.752H291.71V236.104ZM306.99 227.752C307.818 227.752 308.556 227.86 309.204 228.076C309.852 228.28 310.392 228.58 310.824 228.976C311.268 229.36 311.604 229.828 311.832 230.38C312.06 230.92 312.174 231.532 312.174 232.216C312.174 232.756 312.09 233.296 311.922 233.836C311.766 234.376 311.502 234.868 311.13 235.312C310.77 235.756 310.29 236.116 309.69 236.392C309.09 236.656 308.346 236.788 307.458 236.788H305.586V241H302.976V227.752H306.99ZM307.44 234.268C307.836 234.268 308.166 234.202 308.43 234.07C308.694 233.938 308.898 233.77 309.042 233.566C309.198 233.362 309.306 233.152 309.366 232.936C309.438 232.708 309.474 232.498 309.474 232.306C309.474 232.162 309.45 231.982 309.402 231.766C309.366 231.538 309.282 231.31 309.15 231.082C309.018 230.854 308.814 230.662 308.538 230.506C308.274 230.35 307.914 230.272 307.458 230.272H305.586V234.268H307.44ZM309.888 235.888L313.164 241H310.122L306.774 235.96L309.888 235.888ZM315.315 227.752H324.351V230.272H317.925V233.098H323.613V235.618H317.925V238.48H324.603V241H315.315V227.752ZM333.157 227.752H342.193V230.272H335.767V233.098H341.455V235.618H335.767V238.48H342.445V241H333.157V227.752ZM355.082 239.902C354.938 240.022 354.668 240.184 354.272 240.388C353.888 240.592 353.414 240.772 352.85 240.928C352.286 241.084 351.662 241.156 350.978 241.144C349.934 241.12 348.998 240.934 348.17 240.586C347.354 240.226 346.658 239.74 346.082 239.128C345.518 238.516 345.086 237.814 344.786 237.022C344.486 236.23 344.336 235.384 344.336 234.484C344.336 233.476 344.486 232.552 344.786 231.712C345.098 230.872 345.536 230.146 346.1 229.534C346.676 228.922 347.36 228.448 348.152 228.112C348.944 227.776 349.82 227.608 350.78 227.608C351.668 227.608 352.454 227.728 353.138 227.968C353.822 228.208 354.38 228.466 354.812 228.742L353.786 231.208C353.486 230.98 353.084 230.746 352.58 230.506C352.088 230.254 351.518 230.128 350.87 230.128C350.366 230.128 349.88 230.236 349.412 230.452C348.956 230.656 348.548 230.95 348.188 231.334C347.84 231.718 347.564 232.168 347.36 232.684C347.156 233.188 347.054 233.74 347.054 234.34C347.054 234.976 347.144 235.558 347.324 236.086C347.516 236.614 347.786 237.07 348.134 237.454C348.482 237.826 348.896 238.114 349.376 238.318C349.868 238.522 350.42 238.624 351.032 238.624C351.74 238.624 352.346 238.51 352.85 238.282C353.354 238.054 353.738 237.814 354.002 237.562L355.082 239.902ZM364.77 230.956C364.266 230.68 363.75 230.452 363.222 230.272C362.706 230.092 362.22 230.002 361.764 230.002C361.2 230.002 360.756 230.116 360.432 230.344C360.108 230.572 359.946 230.914 359.946 231.37C359.946 231.682 360.066 231.964 360.306 232.216C360.558 232.456 360.876 232.672 361.26 232.864C361.656 233.056 362.064 233.23 362.484 233.386C362.868 233.53 363.246 233.704 363.618 233.908C364.002 234.1 364.344 234.346 364.644 234.646C364.944 234.934 365.184 235.3 365.364 235.744C365.544 236.176 365.634 236.71 365.634 237.346C365.634 238.018 365.46 238.642 365.112 239.218C364.764 239.794 364.254 240.262 363.582 240.622C362.91 240.97 362.082 241.144 361.098 241.144C360.594 241.144 360.078 241.096 359.55 241C359.034 240.892 358.524 240.736 358.02 240.532C357.516 240.316 357.03 240.046 356.562 239.722L357.714 237.688C358.026 237.916 358.362 238.12 358.722 238.3C359.094 238.468 359.466 238.6 359.838 238.696C360.21 238.792 360.552 238.84 360.864 238.84C361.176 238.84 361.488 238.798 361.8 238.714C362.124 238.618 362.388 238.462 362.592 238.246C362.808 238.03 362.916 237.73 362.916 237.346C362.916 237.082 362.826 236.842 362.646 236.626C362.478 236.41 362.244 236.212 361.944 236.032C361.656 235.852 361.338 235.696 360.99 235.564C360.582 235.408 360.162 235.228 359.73 235.024C359.298 234.82 358.89 234.574 358.506 234.286C358.134 233.986 357.828 233.62 357.588 233.188C357.36 232.744 357.246 232.204 357.246 231.568C357.246 230.8 357.414 230.134 357.75 229.57C358.098 229.006 358.584 228.562 359.208 228.238C359.832 227.902 360.552 227.716 361.368 227.68C362.436 227.68 363.3 227.806 363.96 228.058C364.632 228.31 365.232 228.61 365.76 228.958L364.77 230.956ZM367.29 227.752H376.218V230.272H372.996V241H370.386V230.272H367.29V227.752ZM376.171 241L382.147 227.23H382.291L388.267 241H385.243L381.427 231.316L383.317 230.02L378.745 241H376.171ZM380.257 236.212H384.235L385.153 238.408H379.447L380.257 236.212ZM397.272 230.956C396.768 230.68 396.252 230.452 395.724 230.272C395.208 230.092 394.722 230.002 394.266 230.002C393.702 230.002 393.258 230.116 392.934 230.344C392.61 230.572 392.448 230.914 392.448 231.37C392.448 231.682 392.568 231.964 392.808 232.216C393.06 232.456 393.378 232.672 393.762 232.864C394.158 233.056 394.566 233.23 394.986 233.386C395.37 233.53 395.748 233.704 396.12 233.908C396.504 234.1 396.846 234.346 397.146 234.646C397.446 234.934 397.686 235.3 397.866 235.744C398.046 236.176 398.136 236.71 398.136 237.346C398.136 238.018 397.962 238.642 397.614 239.218C397.266 239.794 396.756 240.262 396.084 240.622C395.412 240.97 394.584 241.144 393.6 241.144C393.096 241.144 392.58 241.096 392.052 241C391.536 240.892 391.026 240.736 390.522 240.532C390.018 240.316 389.532 240.046 389.064 239.722L390.216 237.688C390.528 237.916 390.864 238.12 391.224 238.3C391.596 238.468 391.968 238.6 392.34 238.696C392.712 238.792 393.054 238.84 393.366 238.84C393.678 238.84 393.99 238.798 394.302 238.714C394.626 238.618 394.89 238.462 395.094 238.246C395.31 238.03 395.418 237.73 395.418 237.346C395.418 237.082 395.328 236.842 395.148 236.626C394.98 236.41 394.746 236.212 394.446 236.032C394.158 235.852 393.84 235.696 393.492 235.564C393.084 235.408 392.664 235.228 392.232 235.024C391.8 234.82 391.392 234.574 391.008 234.286C390.636 233.986 390.33 233.62 390.09 233.188C389.862 232.744 389.748 232.204 389.748 231.568C389.748 230.8 389.916 230.134 390.252 229.57C390.6 229.006 391.086 228.562 391.71 228.238C392.334 227.902 393.054 227.716 393.87 227.68C394.938 227.68 395.802 227.806 396.462 228.058C397.134 228.31 397.734 228.61 398.262 228.958L397.272 230.956ZM404.13 236.878L399.252 227.752H402.474L405.894 234.628L405.12 234.682L408.486 227.752H411.708L406.74 236.878V241H404.13V236.878ZM412.621 227.23H414.871V237.418H412.621V227.23ZM413.809 241.252C413.377 241.252 413.023 241.138 412.747 240.91C412.471 240.67 412.333 240.358 412.333 239.974C412.333 239.602 412.471 239.29 412.747 239.038C413.035 238.786 413.389 238.66 413.809 238.66C414.229 238.66 414.571 238.786 414.835 239.038C415.111 239.29 415.249 239.602 415.249 239.974C415.249 240.358 415.117 240.67 414.853 240.91C414.589 241.138 414.241 241.252 413.809 241.252Z" fill="#D71F27"/>
<line x1="519.5" y1="133.5" x2="57.5" y2="133.5" stroke="url(#paint1_linear_199_274)" stroke-linecap="round"/>
<line x1="519.5" y1="202.5" x2="57.5" y2="202.5" stroke="url(#paint2_linear_199_274)" stroke-linecap="round"/>
<defs>
<linearGradient id="paint0_linear_199_274" x1="329" y1="1" x2="329" y2="281" gradientUnits="userSpaceOnUse">
<stop stop-color="#0044C9"/>
<stop offset="1" stop-color="#D71F27"/>
</linearGradient>
<linearGradient id="paint1_linear_199_274" x1="520" y1="132.5" x2="57" y2="132.5" gradientUnits="userSpaceOnUse">
<stop stop-color="#292E33" stop-opacity="0"/>
<stop offset="1" stop-color="#3A80FE"/>
</linearGradient>
<linearGradient id="paint2_linear_199_274" x1="520" y1="201.5" x2="57" y2="201.5" gradientUnits="userSpaceOnUse">
<stop stop-color="#292E33" stop-opacity="0"/>
<stop offset="1" stop-color="#3A80FE"/>
</linearGradient>
</defs>
</svg>
